<svg xmlns="http://www.w3.org/2000/svg" xmlns:xlink="http://www.w3.org/1999/xlink" width="2000" zoomAndPan="magnify" viewBox="0 0 1500 1499.999933" height="2000" preserveAspectRatio="xMidYMid meet" version="1.0"><defs><filter x="0%" y="0%" width="100%" height="100%" id="ce5d696e55"><feColorMatrix values="0 0 0 0 1 0 0 0 0 1 0 0 0 0 1 0 0 0 1 0" color-interpolation-filters="sRGB"/></filter><clipPath id="c8cf9aa895"><path d="M 11.929688 11.929688 L 1488.070312 11.929688 L 1488.070312 1488.070312 L 11.929688 1488.070312 Z M 11.929688 11.929688 " clip-rule="nonzero"/></clipPath><clipPath id="6dbff99bde"><path d="M 461.929688 11.929688 L 1038.070312 11.929688 C 1157.417969 11.929688 1271.878906 59.339844 1356.269531 143.730469 C 1440.660156 228.121094 1488.070312 342.582031 1488.070312 461.929688 L 1488.070312 1038.070312 C 1488.070312 1157.417969 1440.660156 1271.878906 1356.269531 1356.269531 C 1271.878906 1440.660156 1157.417969 1488.070312 1038.070312 1488.070312 L 461.929688 1488.070312 C 342.582031 1488.070312 228.121094 1440.660156 143.730469 1356.269531 C 59.339844 1271.878906 11.929688 1157.417969 11.929688 1038.070312 L 11.929688 461.929688 C 11.929688 342.582031 59.339844 228.121094 143.730469 143.730469 C 228.121094 59.339844 342.582031 11.929688 461.929688 11.929688 Z M 461.929688 11.929688 " clip-rule="nonzero"/></clipPath><clipPath id="123befabb6"><path d="M 0.929688 0.929688 L 1477.070312 0.929688 L 1477.070312 1477.070312 L 0.929688 1477.070312 Z M 0.929688 0.929688 " clip-rule="nonzero"/></clipPath><clipPath id="387b26e28b"><path d="M 450.929688 0.929688 L 1027.070312 0.929688 C 1146.417969 0.929688 1260.878906 48.339844 1345.269531 132.730469 C 1429.660156 217.121094 1477.070312 331.582031 1477.070312 450.929688 L 1477.070312 1027.070312 C 1477.070312 1146.417969 1429.660156 1260.878906 1345.269531 1345.269531 C 1260.878906 1429.660156 1146.417969 1477.070312 1027.070312 1477.070312 L 450.929688 1477.070312 C 331.582031 1477.070312 217.121094 1429.660156 132.730469 1345.269531 C 48.339844 1260.878906 0.929688 1146.417969 0.929688 1027.070312 L 0.929688 450.929688 C 0.929688 331.582031 48.339844 217.121094 132.730469 132.730469 C 217.121094 48.339844 331.582031 0.929688 450.929688 0.929688 Z M 450.929688 0.929688 " clip-rule="nonzero"/></clipPath><linearGradient x1="128" gradientTransform="matrix(5.766183, 0, 0, 5.766183, 0.928514, 0.928461)" y1="0" x2="128" gradientUnits="userSpaceOnUse" y2="256" id="62130d4f02"><stop stop-opacity="1" stop-color="rgb(92.939758%, 8.239746%, 32.159424%)" offset="0"/><stop stop-opacity="1" stop-color="rgb(92.837524%, 8.250427%, 32.148743%)" offset="0.0078125"/><stop stop-opacity="1" stop-color="rgb(92.636108%, 8.27179%, 32.12738%)" offset="0.015625"/><stop stop-opacity="1" stop-color="rgb(92.433167%, 8.293152%, 32.106018%)" offset="0.0234375"/><stop stop-opacity="1" stop-color="rgb(92.23175%, 8.314514%, 32.084656%)" offset="0.03125"/><stop stop-opacity="1" stop-color="rgb(92.028809%, 8.335876%, 32.061768%)" offset="0.0390625"/><stop stop-opacity="1" stop-color="rgb(91.827393%, 8.357239%, 32.040405%)" offset="0.046875"/><stop stop-opacity="1" stop-color="rgb(91.624451%, 8.378601%, 32.019043%)" offset="0.0546875"/><stop stop-opacity="1" stop-color="rgb(91.423035%, 8.399963%, 31.997681%)" offset="0.0625"/><stop stop-opacity="1" stop-color="rgb(91.220093%, 8.421326%, 31.976318%)" offset="0.0703125"/><stop stop-opacity="1" stop-color="rgb(91.018677%, 8.442688%, 31.954956%)" offset="0.078125"/><stop stop-opacity="1" stop-color="rgb(90.815735%, 8.46405%, 31.933594%)" offset="0.0859375"/><stop stop-opacity="1" stop-color="rgb(90.614319%, 8.485413%, 31.912231%)" offset="0.09375"/><stop stop-opacity="1" stop-color="rgb(90.411377%, 8.506775%, 31.890869%)" offset="0.101562"/><stop stop-opacity="1" stop-color="rgb(90.209961%, 8.528137%, 31.869507%)" offset="0.109375"/><stop stop-opacity="1" stop-color="rgb(90.007019%, 8.5495%, 31.848145%)" offset="0.117188"/><stop stop-opacity="1" stop-color="rgb(89.805603%, 8.570862%, 31.826782%)" offset="0.125"/><stop stop-opacity="1" stop-color="rgb(89.602661%, 8.592224%, 31.80542%)" offset="0.132812"/><stop stop-opacity="1" stop-color="rgb(89.401245%, 8.613586%, 31.782532%)" offset="0.140625"/><stop stop-opacity="1" stop-color="rgb(89.198303%, 8.634949%, 31.761169%)" offset="0.148438"/><stop stop-opacity="1" stop-color="rgb(88.996887%, 8.656311%, 31.739807%)" offset="0.15625"/><stop stop-opacity="1" stop-color="rgb(88.793945%, 8.677673%, 31.718445%)" offset="0.164062"/><stop stop-opacity="1" stop-color="rgb(88.592529%, 8.699036%, 31.697083%)" offset="0.171875"/><stop stop-opacity="1" stop-color="rgb(88.389587%, 8.720398%, 31.67572%)" offset="0.179688"/><stop stop-opacity="1" stop-color="rgb(88.188171%, 8.74176%, 31.654358%)" offset="0.1875"/><stop stop-opacity="1" stop-color="rgb(87.985229%, 8.763123%, 31.632996%)" offset="0.195312"/><stop stop-opacity="1" stop-color="rgb(87.783813%, 8.784485%, 31.611633%)" offset="0.203125"/><stop stop-opacity="1" stop-color="rgb(87.580872%, 8.805847%, 31.590271%)" offset="0.210938"/><stop stop-opacity="1" stop-color="rgb(87.379456%, 8.827209%, 31.568909%)" offset="0.21875"/><stop stop-opacity="1" stop-color="rgb(87.176514%, 8.848572%, 31.547546%)" offset="0.226562"/><stop stop-opacity="1" stop-color="rgb(86.973572%, 8.87146%, 31.524658%)" offset="0.234375"/><stop stop-opacity="1" stop-color="rgb(86.772156%, 8.892822%, 31.503296%)" offset="0.242188"/><stop stop-opacity="1" stop-color="rgb(86.569214%, 8.914185%, 31.481934%)" offset="0.25"/><stop stop-opacity="1" stop-color="rgb(86.367798%, 8.935547%, 31.460571%)" offset="0.257812"/><stop stop-opacity="1" stop-color="rgb(86.164856%, 8.956909%, 31.439209%)" offset="0.265625"/><stop stop-opacity="1" stop-color="rgb(85.96344%, 8.978271%, 31.417847%)" offset="0.273438"/><stop stop-opacity="1" stop-color="rgb(85.760498%, 8.999634%, 31.396484%)" offset="0.28125"/><stop stop-opacity="1" stop-color="rgb(85.559082%, 9.020996%, 31.375122%)" offset="0.289062"/><stop stop-opacity="1" stop-color="rgb(85.35614%, 9.042358%, 31.35376%)" offset="0.296875"/><stop stop-opacity="1" stop-color="rgb(85.154724%, 9.063721%, 31.332397%)" offset="0.304688"/><stop stop-opacity="1" stop-color="rgb(84.951782%, 9.085083%, 31.311035%)" offset="0.3125"/><stop stop-opacity="1" stop-color="rgb(84.750366%, 9.106445%, 31.289673%)" offset="0.320312"/><stop stop-opacity="1" stop-color="rgb(84.547424%, 9.127808%, 31.268311%)" offset="0.328125"/><stop stop-opacity="1" stop-color="rgb(84.346008%, 9.14917%, 31.245422%)" offset="0.335938"/><stop stop-opacity="1" stop-color="rgb(84.143066%, 9.170532%, 31.22406%)" offset="0.34375"/><stop stop-opacity="1" stop-color="rgb(83.94165%, 9.191895%, 31.202698%)" offset="0.351562"/><stop stop-opacity="1" stop-color="rgb(83.738708%, 9.213257%, 31.181335%)" offset="0.359375"/><stop stop-opacity="1" stop-color="rgb(83.537292%, 9.234619%, 31.159973%)" offset="0.367188"/><stop stop-opacity="1" stop-color="rgb(83.334351%, 9.255981%, 31.138611%)" offset="0.375"/><stop stop-opacity="1" stop-color="rgb(83.132935%, 9.277344%, 31.117249%)" offset="0.382812"/><stop stop-opacity="1" stop-color="rgb(82.929993%, 9.298706%, 31.095886%)" offset="0.390625"/><stop stop-opacity="1" stop-color="rgb(82.728577%, 9.320068%, 31.074524%)" offset="0.398438"/><stop stop-opacity="1" stop-color="rgb(82.525635%, 9.341431%, 31.053162%)" offset="0.40625"/><stop stop-opacity="1" stop-color="rgb(82.324219%, 9.362793%, 31.031799%)" offset="0.414062"/><stop stop-opacity="1" stop-color="rgb(82.121277%, 9.384155%, 31.010437%)" offset="0.421875"/><stop stop-opacity="1" stop-color="rgb(81.919861%, 9.405518%, 30.987549%)" offset="0.429688"/><stop stop-opacity="1" stop-color="rgb(81.716919%, 9.42688%, 30.966187%)" offset="0.4375"/><stop stop-opacity="1" stop-color="rgb(81.515503%, 9.448242%, 30.944824%)" offset="0.445312"/><stop stop-opacity="1" stop-color="rgb(81.312561%, 9.469604%, 30.923462%)" offset="0.453125"/><stop stop-opacity="1" stop-color="rgb(81.111145%, 9.490967%, 30.9021%)" offset="0.460938"/><stop stop-opacity="1" stop-color="rgb(80.908203%, 9.512329%, 30.880737%)" offset="0.46875"/><stop stop-opacity="1" stop-color="rgb(80.706787%, 9.533691%, 30.859375%)" offset="0.476562"/><stop stop-opacity="1" stop-color="rgb(80.503845%, 9.555054%, 30.838013%)" offset="0.484375"/><stop stop-opacity="1" stop-color="rgb(80.302429%, 9.576416%, 30.81665%)" offset="0.492188"/><stop stop-opacity="1" stop-color="rgb(80.099487%, 9.597778%, 30.795288%)" offset="0.5"/><stop stop-opacity="1" stop-color="rgb(79.898071%, 9.620667%, 30.773926%)" offset="0.507812"/><stop stop-opacity="1" stop-color="rgb(79.695129%, 9.642029%, 30.752563%)" offset="0.515625"/><stop stop-opacity="1" stop-color="rgb(79.493713%, 9.663391%, 30.731201%)" offset="0.523438"/><stop stop-opacity="1" stop-color="rgb(79.290771%, 9.684753%, 30.708313%)" offset="0.53125"/><stop stop-opacity="1" stop-color="rgb(79.089355%, 9.706116%, 30.686951%)" offset="0.539062"/><stop stop-opacity="1" stop-color="rgb(78.886414%, 9.727478%, 30.665588%)" offset="0.546875"/><stop stop-opacity="1" stop-color="rgb(78.684998%, 9.74884%, 30.644226%)" offset="0.554688"/><stop stop-opacity="1" stop-color="rgb(78.482056%, 9.770203%, 30.622864%)" offset="0.5625"/><stop stop-opacity="1" stop-color="rgb(78.28064%, 9.791565%, 30.601501%)" offset="0.570312"/><stop stop-opacity="1" stop-color="rgb(78.077698%, 9.812927%, 30.580139%)" offset="0.578125"/><stop stop-opacity="1" stop-color="rgb(77.876282%, 9.83429%, 30.558777%)" offset="0.585938"/><stop stop-opacity="1" stop-color="rgb(77.67334%, 9.855652%, 30.537415%)" offset="0.59375"/><stop stop-opacity="1" stop-color="rgb(77.471924%, 9.877014%, 30.516052%)" offset="0.601562"/><stop stop-opacity="1" stop-color="rgb(77.268982%, 9.898376%, 30.49469%)" offset="0.609375"/><stop stop-opacity="1" stop-color="rgb(77.067566%, 9.919739%, 30.473328%)" offset="0.617188"/><stop stop-opacity="1" stop-color="rgb(76.864624%, 9.941101%, 30.450439%)" offset="0.625"/><stop stop-opacity="1" stop-color="rgb(76.663208%, 9.962463%, 30.429077%)" offset="0.632812"/><stop stop-opacity="1" stop-color="rgb(76.460266%, 9.983826%, 30.407715%)" offset="0.640625"/><stop stop-opacity="1" stop-color="rgb(76.25885%, 10.005188%, 30.386353%)" offset="0.648438"/><stop stop-opacity="1" stop-color="rgb(76.055908%, 10.02655%, 30.36499%)" offset="0.65625"/><stop stop-opacity="1" stop-color="rgb(75.854492%, 10.047913%, 30.343628%)" offset="0.664062"/><stop stop-opacity="1" stop-color="rgb(75.65155%, 10.069275%, 30.322266%)" offset="0.671875"/><stop stop-opacity="1" stop-color="rgb(75.450134%, 10.090637%, 30.300903%)" offset="0.679688"/><stop stop-opacity="1" stop-color="rgb(75.247192%, 10.112%, 30.279541%)" offset="0.6875"/><stop stop-opacity="1" stop-color="rgb(75.045776%, 10.133362%, 30.258179%)" offset="0.695312"/><stop stop-opacity="1" stop-color="rgb(74.842834%, 10.154724%, 30.236816%)" offset="0.703125"/><stop stop-opacity="1" stop-color="rgb(74.641418%, 10.176086%, 30.215454%)" offset="0.710938"/><stop stop-opacity="1" stop-color="rgb(74.438477%, 10.197449%, 30.194092%)" offset="0.71875"/><stop stop-opacity="1" stop-color="rgb(74.237061%, 10.218811%, 30.171204%)" offset="0.726562"/><stop stop-opacity="1" stop-color="rgb(74.034119%, 10.240173%, 30.149841%)" offset="0.734375"/><stop stop-opacity="1" stop-color="rgb(73.832703%, 10.261536%, 30.128479%)" offset="0.742188"/><stop stop-opacity="1" stop-color="rgb(73.629761%, 10.282898%, 30.107117%)" offset="0.75"/><stop stop-opacity="1" stop-color="rgb(73.428345%, 10.30426%, 30.085754%)" offset="0.757812"/><stop stop-opacity="1" stop-color="rgb(73.225403%, 10.325623%, 30.064392%)" offset="0.765625"/><stop stop-opacity="1" stop-color="rgb(73.023987%, 10.346985%, 30.04303%)" offset="0.773438"/><stop stop-opacity="1" stop-color="rgb(72.821045%, 10.369873%, 30.021667%)" offset="0.78125"/><stop stop-opacity="1" stop-color="rgb(72.619629%, 10.391235%, 30.000305%)" offset="0.789062"/><stop stop-opacity="1" stop-color="rgb(72.416687%, 10.412598%, 29.978943%)" offset="0.796875"/><stop stop-opacity="1" stop-color="rgb(72.215271%, 10.43396%, 29.957581%)" offset="0.804688"/><stop stop-opacity="1" stop-color="rgb(72.012329%, 10.455322%, 29.936218%)" offset="0.8125"/><stop stop-opacity="1" stop-color="rgb(71.810913%, 10.476685%, 29.91333%)" offset="0.820312"/><stop stop-opacity="1" stop-color="rgb(71.607971%, 10.498047%, 29.891968%)" offset="0.828125"/><stop stop-opacity="1" stop-color="rgb(71.406555%, 10.519409%, 29.870605%)" offset="0.835938"/><stop stop-opacity="1" stop-color="rgb(71.203613%, 10.540771%, 29.849243%)" offset="0.84375"/><stop stop-opacity="1" stop-color="rgb(71.002197%, 10.562134%, 29.827881%)" offset="0.851562"/><stop stop-opacity="1" stop-color="rgb(70.799255%, 10.583496%, 29.806519%)" offset="0.859375"/><stop stop-opacity="1" stop-color="rgb(70.597839%, 10.604858%, 29.785156%)" offset="0.867188"/><stop stop-opacity="1" stop-color="rgb(70.394897%, 10.626221%, 29.763794%)" offset="0.875"/><stop stop-opacity="1" stop-color="rgb(70.193481%, 10.647583%, 29.742432%)" offset="0.882812"/><stop stop-opacity="1" stop-color="rgb(69.99054%, 10.668945%, 29.721069%)" offset="0.890625"/><stop stop-opacity="1" stop-color="rgb(69.789124%, 10.690308%, 29.699707%)" offset="0.898438"/><stop stop-opacity="1" stop-color="rgb(69.586182%, 10.71167%, 29.678345%)" offset="0.90625"/><stop stop-opacity="1" stop-color="rgb(69.384766%, 10.733032%, 29.656982%)" offset="0.914062"/><stop stop-opacity="1" stop-color="rgb(69.181824%, 10.754395%, 29.634094%)" offset="0.921875"/><stop stop-opacity="1" stop-color="rgb(68.978882%, 10.775757%, 29.612732%)" offset="0.929688"/><stop stop-opacity="1" stop-color="rgb(68.777466%, 10.797119%, 29.59137%)" offset="0.9375"/><stop stop-opacity="1" stop-color="rgb(68.574524%, 10.818481%, 29.570007%)" offset="0.945312"/><stop stop-opacity="1" stop-color="rgb(68.373108%, 10.839844%, 29.548645%)" offset="0.953125"/><stop stop-opacity="1" stop-color="rgb(68.170166%, 10.861206%, 29.527283%)" offset="0.960938"/><stop stop-opacity="1" stop-color="rgb(67.96875%, 10.882568%, 29.50592%)" offset="0.96875"/><stop stop-opacity="1" stop-color="rgb(67.765808%, 10.903931%, 29.484558%)" offset="0.976562"/><stop stop-opacity="1" stop-color="rgb(67.564392%, 10.925293%, 29.463196%)" offset="0.984375"/><stop stop-opacity="1" stop-color="rgb(67.36145%, 10.946655%, 29.441833%)" offset="0.992188"/><stop stop-opacity="1" stop-color="rgb(67.160034%, 10.968018%, 29.420471%)" offset="1"/></linearGradient><clipPath id="414947052b"><rect x="0" width="1478" y="0" height="1478"/></clipPath><mask id="ce7573c417"><g filter="url(#ce5d696e55)"><rect x="-330" width="2160" fill="#000000" y="-329.999985" height="2159.999904" fill-opacity="0.95"/></g></mask><clipPath id="bc7250a78e"><path d="M 147 147 L 1353 147 L 1353 1353 L 147 1353 Z M 147 147 " clip-rule="nonzero"/></clipPath><clipPath id="910919b253"><path d="M 750 -107.113281 L 1607.109375 750 L 750 1607.113281 L -107.113281 750 Z M 750 -107.113281 " clip-rule="nonzero"/></clipPath><clipPath id="04f5513ed9"><path d="M 1187.445312 352.386719 L 1181.421875 530.648438 C 1180.539062 556.84375 1191.015625 582.144531 1210.164062 600.042969 L 1340.476562 721.832031 C 1348.277344 729.125 1352.707031 739.324219 1352.707031 750 C 1352.707031 760.675781 1348.277344 770.875 1340.476562 778.167969 L 1210.164062 899.957031 C 1191.015625 917.855469 1180.539062 943.15625 1181.421875 969.351562 L 1187.445312 1147.617188 C 1187.808594 1158.285156 1183.726562 1168.628906 1176.175781 1176.179688 C 1168.628906 1183.730469 1158.285156 1187.808594 1147.613281 1187.449219 L 969.351562 1181.425781 C 943.152344 1180.539062 917.855469 1191.019531 899.957031 1210.167969 L 778.164062 1340.480469 C 770.875 1348.28125 760.675781 1352.707031 750 1352.707031 C 739.320312 1352.707031 729.121094 1348.28125 721.832031 1340.480469 L 600.039062 1210.167969 C 582.144531 1191.019531 556.84375 1180.539062 530.648438 1181.425781 L 352.382812 1187.449219 C 341.710938 1187.808594 331.371094 1183.730469 323.820312 1176.179688 C 316.269531 1168.628906 312.191406 1158.285156 312.550781 1147.617188 L 318.574219 969.351562 C 319.460938 943.15625 308.980469 917.855469 289.832031 899.957031 L 159.519531 778.167969 C 151.71875 770.875 147.292969 760.675781 147.292969 750 C 147.292969 739.324219 151.71875 729.125 159.519531 721.835938 L 289.832031 600.042969 C 308.980469 582.144531 319.460938 556.84375 318.574219 530.648438 L 312.550781 352.386719 C 312.191406 341.714844 316.269531 331.371094 323.820312 323.820312 C 331.371094 316.273438 341.710938 312.191406 352.382812 312.550781 L 530.648438 318.578125 C 556.84375 319.460938 582.144531 308.980469 600.039062 289.832031 L 721.832031 159.519531 C 729.121094 151.722656 739.320312 147.292969 750 147.292969 C 760.675781 147.292969 770.875 151.722656 778.164062 159.519531 L 899.957031 289.832031 C 917.855469 308.980469 943.152344 319.460938 969.351562 318.578125 L 1147.613281 312.550781 C 1158.285156 312.191406 1168.628906 316.273438 1176.175781 323.820312 C 1183.726562 331.371094 1187.808594 341.714844 1187.445312 352.386719 Z M 1187.445312 352.386719 " clip-rule="nonzero"/></clipPath><clipPath id="2b16f5eeee"><path d="M 0.121094 0.121094 L 1205.878906 0.121094 L 1205.878906 1205.878906 L 0.121094 1205.878906 Z M 0.121094 0.121094 " clip-rule="nonzero"/></clipPath><clipPath id="9152c1e5de"><path d="M 603 -254.113281 L 1460.109375 603 L 603 1460.113281 L -254.113281 603 Z M 603 -254.113281 " clip-rule="nonzero"/></clipPath><clipPath id="5601c9e691"><path d="M 1040.445312 205.386719 L 1034.421875 383.648438 C 1033.539062 409.84375 1044.015625 435.144531 1063.164062 453.042969 L 1193.476562 574.832031 C 1201.277344 582.125 1205.707031 592.324219 1205.707031 603 C 1205.707031 613.675781 1201.277344 623.875 1193.476562 631.167969 L 1063.164062 752.957031 C 1044.015625 770.855469 1033.539062 796.15625 1034.421875 822.351562 L 1040.445312 1000.617188 C 1040.808594 1011.285156 1036.726562 1021.628906 1029.175781 1029.179688 C 1021.628906 1036.730469 1011.285156 1040.808594 1000.613281 1040.449219 L 822.351562 1034.425781 C 796.152344 1033.539062 770.855469 1044.019531 752.957031 1063.167969 L 631.164062 1193.480469 C 623.875 1201.28125 613.675781 1205.707031 603 1205.707031 C 592.320312 1205.707031 582.121094 1201.28125 574.832031 1193.480469 L 453.039062 1063.167969 C 435.144531 1044.019531 409.84375 1033.539062 383.648438 1034.425781 L 205.382812 1040.449219 C 194.710938 1040.808594 184.371094 1036.730469 176.820312 1029.179688 C 169.269531 1021.628906 165.191406 1011.285156 165.550781 1000.617188 L 171.574219 822.351562 C 172.460938 796.15625 161.980469 770.855469 142.832031 752.957031 L 12.519531 631.167969 C 4.71875 623.875 0.292969 613.675781 0.292969 603 C 0.292969 592.324219 4.71875 582.125 12.519531 574.835938 L 142.832031 453.042969 C 161.980469 435.144531 172.460938 409.84375 171.574219 383.648438 L 165.550781 205.386719 C 165.191406 194.714844 169.269531 184.371094 176.820312 176.820312 C 184.371094 169.273438 194.710938 165.191406 205.382812 165.550781 L 383.648438 171.578125 C 409.84375 172.460938 435.144531 161.980469 453.039062 142.832031 L 574.832031 12.519531 C 582.121094 4.722656 592.320312 0.292969 603 0.292969 C 613.675781 0.292969 623.875 4.722656 631.164062 12.519531 L 752.957031 142.832031 C 770.855469 161.980469 796.152344 172.460938 822.351562 171.578125 L 1000.613281 165.550781 C 1011.285156 165.191406 1021.628906 169.273438 1029.175781 176.820312 C 1036.726562 184.371094 1040.808594 194.714844 1040.445312 205.386719 Z M 1040.445312 205.386719 " clip-rule="nonzero"/></clipPath><clipPath id="443a24837d"><rect x="0" width="1206" y="0" height="1206"/></clipPath><clipPath id="da57c1ea0a"><rect x="0" width="1500" y="0" height="1500"/></clipPath><mask id="7d6fbe3828"><g filter="url(#ce5d696e55)"><rect x="-330" width="2160" fill="#000000" y="-329.999985" height="2159.999904" fill-opacity="0.95"/></g></mask><clipPath id="1017c9e69d"><path d="M 189 189 L 1311 189 L 1311 1311 L 189 1311 Z M 189 189 " clip-rule="nonzero"/></clipPath><clipPath id="75675596ff"><path d="M 1081.402344 -40.449219 L 1540.449219 1081.40625 L 418.59375 1540.453125 L -40.453125 418.59375 Z M 1081.402344 -40.449219 " clip-rule="nonzero"/></clipPath><clipPath id="9ecfda70bf"><path d="M 1307.164062 552.449219 L 1232.679688 714.519531 C 1221.734375 738.335938 1221.617188 765.722656 1232.359375 789.628906 L 1305.441406 952.335938 C 1309.816406 962.074219 1309.957031 973.191406 1305.828125 983.039062 C 1301.703125 992.886719 1293.675781 1000.578125 1283.660156 1004.285156 L 1116.394531 1066.21875 C 1091.8125 1075.320312 1072.367188 1094.601562 1063.054688 1119.101562 L 999.683594 1285.832031 C 995.890625 1295.8125 988.128906 1303.773438 978.246094 1307.816406 C 968.367188 1311.859375 957.25 1311.625 947.546875 1307.164062 L 785.476562 1232.683594 C 761.660156 1221.738281 734.277344 1221.621094 710.367188 1232.359375 L 547.664062 1305.445312 C 537.925781 1309.820312 526.804688 1309.960938 516.960938 1305.832031 C 507.113281 1301.703125 499.417969 1293.675781 495.710938 1283.664062 L 433.777344 1116.398438 C 424.675781 1091.816406 405.394531 1072.371094 380.894531 1063.058594 L 214.167969 999.6875 C 204.1875 995.894531 196.226562 988.132812 192.183594 978.25 C 188.140625 968.367188 188.375 957.253906 192.832031 947.550781 L 267.316406 785.480469 C 278.261719 761.664062 278.378906 734.28125 267.636719 710.371094 L 194.550781 547.664062 C 190.175781 537.925781 190.039062 526.808594 194.164062 516.960938 C 198.292969 507.117188 206.320312 499.421875 216.332031 495.714844 L 383.601562 433.78125 C 408.179688 424.679688 427.628906 405.398438 436.941406 380.898438 L 500.3125 214.167969 C 504.105469 204.1875 511.867188 196.226562 521.75 192.183594 C 531.628906 188.140625 542.746094 188.375 552.449219 192.835938 L 714.519531 267.316406 C 738.332031 278.261719 765.71875 278.378906 789.628906 267.640625 L 952.332031 194.554688 C 962.070312 190.179688 973.191406 190.039062 983.035156 194.167969 C 992.882812 198.296875 1000.578125 206.324219 1004.285156 216.335938 L 1066.21875 383.605469 C 1075.320312 408.183594 1094.597656 427.628906 1119.101562 436.941406 L 1285.828125 500.3125 C 1295.808594 504.105469 1303.769531 511.867188 1307.8125 521.75 C 1311.855469 531.632812 1311.621094 542.75 1307.164062 552.449219 Z M 1307.164062 552.449219 " clip-rule="nonzero"/></clipPath><clipPath id="ac71f614cb"><path d="M 0 0 L 1122 0 L 1122 1122 L 0 1122 Z M 0 0 " clip-rule="nonzero"/></clipPath><clipPath id="55bd6db923"><path d="M 892.402344 -229.449219 L 1351.449219 892.40625 L 229.59375 1351.453125 L -229.453125 229.59375 Z M 892.402344 -229.449219 " clip-rule="nonzero"/></clipPath><clipPath id="fa81a71bd3"><path d="M 1118.164062 363.449219 L 1043.679688 525.519531 C 1032.734375 549.335938 1032.617188 576.722656 1043.359375 600.628906 L 1116.441406 763.335938 C 1120.816406 773.074219 1120.957031 784.191406 1116.828125 794.039062 C 1112.703125 803.886719 1104.675781 811.578125 1094.660156 815.285156 L 927.394531 877.21875 C 902.8125 886.320312 883.367188 905.601562 874.054688 930.101562 L 810.683594 1096.832031 C 806.890625 1106.8125 799.128906 1114.773438 789.246094 1118.816406 C 779.367188 1122.859375 768.25 1122.625 758.546875 1118.164062 L 596.476562 1043.683594 C 572.660156 1032.738281 545.277344 1032.621094 521.367188 1043.359375 L 358.664062 1116.445312 C 348.925781 1120.820312 337.804688 1120.960938 327.960938 1116.832031 C 318.113281 1112.703125 310.417969 1104.675781 306.710938 1094.664062 L 244.777344 927.398438 C 235.675781 902.816406 216.394531 883.371094 191.894531 874.058594 L 25.167969 810.6875 C 15.1875 806.894531 7.226562 799.132812 3.183594 789.25 C -0.859375 779.367188 -0.625 768.253906 3.832031 758.550781 L 78.316406 596.480469 C 89.261719 572.664062 89.378906 545.28125 78.636719 521.371094 L 5.550781 358.664062 C 1.175781 348.925781 1.039062 337.808594 5.164062 327.960938 C 9.292969 318.117188 17.320312 310.421875 27.332031 306.714844 L 194.601562 244.78125 C 219.179688 235.679688 238.628906 216.398438 247.941406 191.898438 L 311.3125 25.167969 C 315.105469 15.1875 322.867188 7.226562 332.75 3.183594 C 342.628906 -0.859375 353.746094 -0.625 363.449219 3.835938 L 525.519531 78.316406 C 549.332031 89.261719 576.71875 89.378906 600.628906 78.640625 L 763.332031 5.554688 C 773.070312 1.179688 784.191406 1.039062 794.035156 5.167969 C 803.882812 9.296875 811.578125 17.324219 815.285156 27.335938 L 877.21875 194.605469 C 886.320312 219.183594 905.597656 238.628906 930.101562 247.941406 L 1096.828125 311.3125 C 1106.808594 315.105469 1114.769531 322.867188 1118.8125 332.75 C 1122.855469 342.632812 1122.621094 353.75 1118.164062 363.449219 Z M 1118.164062 363.449219 " clip-rule="nonzero"/></clipPath><clipPath id="5ce4a0c5d6"><rect x="0" width="1122" y="0" height="1122"/></clipPath><clipPath id="525cf88ca9"><rect x="0" width="1500" y="0" height="1500"/></clipPath><clipPath id="fce9e145b0"><rect x="0" width="1500" y="0" height="1500"/></clipPath><mask id="96c8ef3de1"><g filter="url(#ce5d696e55)"><rect x="-394" width="2160" fill="#000000" y="-393.999985" height="2159.999904" fill-opacity="0.95"/></g></mask><clipPath id="0a92cc4dd8"><path d="M 108 108 L 1048 108 L 1048 1048 L 108 1048 Z M 108 108 " clip-rule="nonzero"/></clipPath><clipPath id="dfb754081b"><path d="M 194.371094 18.234375 L 1137.765625 194.371094 L 961.628906 1137.765625 L 18.234375 961.628906 Z M 194.371094 18.234375 " clip-rule="nonzero"/></clipPath><clipPath id="618ba95841"><path d="M 691.066406 125.882812 L 758.585938 231.910156 C 772.664062 254.019531 795.609375 268.964844 821.523438 272.902344 L 945.796875 291.785156 C 956.355469 293.390625 965.773438 299.300781 971.808594 308.105469 C 977.84375 316.914062 979.957031 327.828125 977.644531 338.253906 L 950.414062 460.96875 C 944.734375 486.558594 950.394531 513.351562 965.933594 534.460938 L 1040.457031 635.6875 C 1046.789062 644.289062 1049.269531 655.125 1047.308594 665.621094 C 1045.347656 676.117188 1039.125 685.328125 1030.117188 691.066406 L 924.089844 758.585938 C 901.980469 772.664062 887.035156 795.609375 883.097656 821.523438 L 864.214844 945.796875 C 862.609375 956.355469 856.699219 965.773438 847.894531 971.808594 C 839.085938 977.84375 828.171875 979.957031 817.746094 977.644531 L 695.03125 950.414062 C 669.441406 944.734375 642.648438 950.394531 621.539062 965.933594 L 520.3125 1040.457031 C 511.710938 1046.789062 500.875 1049.269531 490.378906 1047.308594 C 479.882812 1045.347656 470.671875 1039.125 464.933594 1030.117188 L 397.414062 924.089844 C 383.335938 901.980469 360.390625 887.035156 334.476562 883.097656 L 210.199219 864.214844 C 199.644531 862.609375 190.226562 856.699219 184.191406 847.894531 C 178.15625 839.085938 176.042969 828.171875 178.355469 817.746094 L 205.585938 695.03125 C 211.261719 669.441406 205.605469 642.648438 190.066406 621.539062 L 115.542969 520.3125 C 109.210938 511.710938 106.730469 500.875 108.691406 490.378906 C 110.652344 479.882812 116.875 470.671875 125.882812 464.933594 L 231.910156 397.414062 C 254.019531 383.335938 268.964844 360.390625 272.902344 334.476562 L 291.785156 210.199219 C 293.390625 199.644531 299.296875 190.226562 308.105469 184.191406 C 316.914062 178.15625 327.828125 176.042969 338.253906 178.355469 L 460.96875 205.585938 C 486.558594 211.265625 513.351562 205.605469 534.460938 190.066406 L 635.6875 115.542969 C 644.285156 109.210938 655.125 106.730469 665.621094 108.691406 C 676.117188 110.652344 685.328125 116.875 691.066406 125.882812 Z M 691.066406 125.882812 " clip-rule="nonzero"/></clipPath><clipPath id="d1e9495558"><path d="M 0 0 L 940 0 L 940 940 L 0 940 Z M 0 0 " clip-rule="nonzero"/></clipPath><clipPath id="9d722d26a4"><path d="M 86.371094 -89.765625 L 1029.765625 86.371094 L 853.628906 1029.765625 L -89.765625 853.628906 Z M 86.371094 -89.765625 " clip-rule="nonzero"/></clipPath><clipPath id="2553d315b7"><path d="M 583.066406 17.882812 L 650.585938 123.910156 C 664.664062 146.019531 687.609375 160.964844 713.523438 164.902344 L 837.796875 183.785156 C 848.355469 185.390625 857.773438 191.300781 863.808594 200.105469 C 869.84375 208.914062 871.957031 219.828125 869.644531 230.253906 L 842.414062 352.96875 C 836.734375 378.558594 842.394531 405.351562 857.933594 426.460938 L 932.457031 527.6875 C 938.789062 536.289062 941.269531 547.125 939.308594 557.621094 C 937.347656 568.117188 931.125 577.328125 922.117188 583.066406 L 816.089844 650.585938 C 793.980469 664.664062 779.035156 687.609375 775.097656 713.523438 L 756.214844 837.796875 C 754.609375 848.355469 748.699219 857.773438 739.894531 863.808594 C 731.085938 869.84375 720.171875 871.957031 709.746094 869.644531 L 587.03125 842.414062 C 561.441406 836.734375 534.648438 842.394531 513.539062 857.933594 L 412.3125 932.457031 C 403.710938 938.789062 392.875 941.269531 382.378906 939.308594 C 371.882812 937.347656 362.671875 931.125 356.933594 922.117188 L 289.414062 816.089844 C 275.335938 793.980469 252.390625 779.035156 226.476562 775.097656 L 102.199219 756.214844 C 91.644531 754.609375 82.226562 748.699219 76.191406 739.894531 C 70.15625 731.085938 68.042969 720.171875 70.355469 709.746094 L 97.585938 587.03125 C 103.261719 561.441406 97.605469 534.648438 82.066406 513.539062 L 7.542969 412.3125 C 1.210938 403.710938 -1.269531 392.875 0.691406 382.378906 C 2.652344 371.882812 8.875 362.671875 17.882812 356.933594 L 123.910156 289.414062 C 146.019531 275.335938 160.964844 252.390625 164.902344 226.476562 L 183.785156 102.199219 C 185.390625 91.644531 191.296875 82.226562 200.105469 76.191406 C 208.914062 70.15625 219.828125 68.042969 230.253906 70.355469 L 352.96875 97.585938 C 378.558594 103.265625 405.351562 97.605469 426.460938 82.066406 L 527.6875 7.542969 C 536.285156 1.210938 547.125 -1.269531 557.621094 0.691406 C 568.117188 2.652344 577.328125 8.875 583.066406 17.882812 Z M 583.066406 17.882812 " clip-rule="nonzero"/></clipPath><clipPath id="c7780e4886"><rect x="0" width="940" y="0" height="940"/></clipPath><clipPath id="c50654ad9e"><rect x="0" width="1156" y="0" height="1156"/></clipPath><clipPath id="4d28498bcc"><path d="M 0.078125 0.078125 L 1371.917969 0.078125 L 1371.917969 1371.917969 L 0.078125 1371.917969 Z M 0.078125 0.078125 " clip-rule="nonzero"/></clipPath><mask id="5f07a607a1"><g filter="url(#ce5d696e55)"><rect x="-394" width="2160" fill="#000000" y="-393.999985" height="2159.999904" fill-opacity="0.95"/></g></mask><clipPath id="dd81053e50"><path d="M 217 217 L 1155 217 L 1155 1155 L 217 1155 Z M 217 217 " clip-rule="nonzero"/></clipPath><clipPath id="563609feb1"><path d="M 548.09375 21.554688 L 1350.445312 548.09375 L 823.90625 1350.445312 L 21.554688 823.90625 Z M 548.09375 21.554688 " clip-rule="nonzero"/></clipPath><clipPath id="b31177caa0"><path d="M 964.777344 312.53125 L 986.148438 436.402344 C 990.605469 462.234375 1006.007812 484.875 1028.394531 498.507812 L 1135.757812 563.886719 C 1144.878906 569.4375 1151.285156 578.523438 1153.457031 588.980469 C 1155.625 599.433594 1153.363281 610.320312 1147.207031 619.042969 L 1074.730469 721.746094 C 1059.617188 743.160156 1054.496094 770.0625 1060.6875 795.53125 L 1090.375 917.679688 C 1092.898438 928.054688 1091.003906 939.011719 1085.144531 947.9375 C 1079.285156 956.863281 1069.988281 962.960938 1059.46875 964.777344 L 935.597656 986.148438 C 909.765625 990.605469 887.125 1006.007812 873.492188 1028.394531 L 808.113281 1135.757812 C 802.5625 1144.878906 793.476562 1151.285156 783.019531 1153.457031 C 772.566406 1155.625 761.679688 1153.363281 752.957031 1147.207031 L 650.253906 1074.730469 C 628.835938 1059.617188 601.9375 1054.496094 576.46875 1060.6875 L 454.320312 1090.375 C 443.945312 1092.898438 432.988281 1091.003906 424.0625 1085.144531 C 415.136719 1079.289062 409.039062 1069.992188 407.222656 1059.46875 L 385.851562 935.597656 C 381.394531 909.765625 365.992188 887.125 343.605469 873.492188 L 236.242188 808.113281 C 227.121094 802.5625 220.714844 793.476562 218.542969 783.019531 C 216.375 772.566406 218.636719 761.679688 224.792969 752.957031 L 297.269531 650.253906 C 312.382812 628.839844 317.503906 601.9375 311.3125 576.46875 L 281.625 454.320312 C 279.101562 443.945312 280.996094 432.988281 286.855469 424.0625 C 292.710938 415.136719 302.007812 409.039062 312.53125 407.222656 L 436.402344 385.851562 C 462.230469 381.394531 484.875 365.992188 498.507812 343.605469 L 563.882812 236.242188 C 569.4375 227.121094 578.523438 220.714844 588.976562 218.542969 C 599.433594 216.375 610.316406 218.636719 619.042969 224.792969 L 721.746094 297.269531 C 743.160156 312.382812 770.0625 317.503906 795.53125 311.3125 L 917.679688 281.625 C 928.054688 279.101562 939.007812 280.996094 947.9375 286.855469 C 956.863281 292.710938 962.960938 302.011719 964.777344 312.53125 Z M 964.777344 312.53125 " clip-rule="nonzero"/></clipPath><clipPath id="02f523077f"><path d="M 0 0 L 938 0 L 938 938 L 0 938 Z M 0 0 " clip-rule="nonzero"/></clipPath><clipPath id="03e17524ae"><path d="M 331.09375 -195.445312 L 1133.445312 331.09375 L 606.90625 1133.445312 L -195.445312 606.90625 Z M 331.09375 -195.445312 " clip-rule="nonzero"/></clipPath><clipPath id="fd0f4e17db"><path d="M 747.777344 95.53125 L 769.148438 219.402344 C 773.605469 245.234375 789.007812 267.875 811.394531 281.507812 L 918.757812 346.886719 C 927.878906 352.4375 934.285156 361.523438 936.457031 371.980469 C 938.625 382.433594 936.363281 393.320312 930.207031 402.042969 L 857.730469 504.746094 C 842.617188 526.160156 837.496094 553.0625 843.6875 578.53125 L 873.375 700.679688 C 875.898438 711.054688 874.003906 722.011719 868.144531 730.9375 C 862.285156 739.863281 852.988281 745.960938 842.46875 747.777344 L 718.597656 769.148438 C 692.765625 773.605469 670.125 789.007812 656.492188 811.394531 L 591.113281 918.757812 C 585.5625 927.878906 576.476562 934.285156 566.019531 936.457031 C 555.566406 938.625 544.679688 936.363281 535.957031 930.207031 L 433.253906 857.730469 C 411.835938 842.617188 384.9375 837.496094 359.46875 843.6875 L 237.320312 873.375 C 226.945312 875.898438 215.988281 874.003906 207.0625 868.144531 C 198.136719 862.289062 192.039062 852.992188 190.222656 842.46875 L 168.851562 718.597656 C 164.394531 692.765625 148.992188 670.125 126.605469 656.492188 L 19.242188 591.113281 C 10.121094 585.5625 3.714844 576.476562 1.542969 566.019531 C -0.625 555.566406 1.636719 544.679688 7.792969 535.957031 L 80.269531 433.253906 C 95.382812 411.839844 100.503906 384.9375 94.3125 359.46875 L 64.625 237.320312 C 62.101562 226.945312 63.996094 215.988281 69.855469 207.0625 C 75.710938 198.136719 85.007812 192.039062 95.53125 190.222656 L 219.402344 168.851562 C 245.230469 164.394531 267.875 148.992188 281.507812 126.605469 L 346.882812 19.242188 C 352.4375 10.121094 361.523438 3.714844 371.976562 1.542969 C 382.433594 -0.625 393.316406 1.636719 402.042969 7.792969 L 504.746094 80.269531 C 526.160156 95.382812 553.0625 100.503906 578.53125 94.3125 L 700.679688 64.625 C 711.054688 62.101562 722.007812 63.996094 730.9375 69.855469 C 739.863281 75.710938 745.960938 85.011719 747.777344 95.53125 Z M 747.777344 95.53125 " clip-rule="nonzero"/></clipPath><clipPath id="2ddd864ad3"><rect x="0" width="938" y="0" height="938"/></clipPath><clipPath id="5f489993db"><rect x="0" width="1372" y="0" height="1372"/></clipPath><clipPath id="e07487c8d8"><rect x="0" width="1372" y="0" height="1372"/></clipPath><mask id="365f0849c3"><g filter="url(#ce5d696e55)"><rect x="-697" width="2160" fill="#000000" y="-696.999985" height="2159.999904" fill-opacity="0.91"/></g></mask><clipPath id="7e15a3f743"><path d="M 18 18 L 572 18 L 572 572 L 18 572 Z M 18 18 " clip-rule="nonzero"/></clipPath><clipPath id="3be118109d"><path d="M 323.167969 30.492188 L 351.398438 60.699219 C 369.296875 79.851562 394.597656 90.328125 420.792969 89.445312 L 462.117188 88.046875 C 472.789062 87.6875 483.132812 91.769531 490.683594 99.316406 C 498.230469 106.867188 502.3125 117.210938 501.953125 127.882812 L 500.554688 169.207031 C 499.667969 195.402344 510.148438 220.703125 529.296875 238.597656 L 559.507812 266.832031 C 567.308594 274.125 571.734375 284.324219 571.734375 295 C 571.734375 305.675781 567.308594 315.875 559.507812 323.167969 L 529.296875 351.398438 C 510.148438 369.296875 499.667969 394.597656 500.554688 420.792969 L 501.953125 462.117188 C 502.3125 472.789062 498.230469 483.132812 490.683594 490.683594 C 483.132812 498.230469 472.789062 502.3125 462.117188 501.953125 L 420.792969 500.554688 C 394.597656 499.667969 369.296875 510.148438 351.398438 529.296875 L 323.167969 559.507812 C 315.875 567.308594 305.675781 571.734375 295 571.734375 C 284.324219 571.734375 274.125 567.308594 266.832031 559.507812 L 238.597656 529.296875 C 220.703125 510.148438 195.402344 499.667969 169.207031 500.554688 L 127.882812 501.953125 C 117.210938 502.3125 106.867188 498.230469 99.316406 490.683594 C 91.769531 483.132812 87.6875 472.789062 88.046875 462.117188 L 89.445312 420.792969 C 90.328125 394.597656 79.851562 369.296875 60.703125 351.398438 L 30.492188 323.167969 C 22.691406 315.875 18.265625 305.675781 18.265625 295 C 18.265625 284.324219 22.691406 274.125 30.492188 266.832031 L 60.703125 238.597656 C 79.851562 220.703125 90.328125 195.402344 89.445312 169.207031 L 88.046875 127.882812 C 87.6875 117.210938 91.769531 106.867188 99.316406 99.316406 C 106.867188 91.769531 117.210938 87.6875 127.882812 88.046875 L 169.207031 89.445312 C 195.402344 90.328125 220.703125 79.851562 238.601562 60.699219 L 266.832031 30.492188 C 274.125 22.691406 284.324219 18.265625 295 18.265625 C 305.675781 18.265625 315.875 22.691406 323.167969 30.492188 Z M 323.167969 30.492188 " clip-rule="nonzero"/></clipPath><clipPath id="9572c6906b"><path d="M 0.0390625 0.0390625 L 553.960938 0.0390625 L 553.960938 553.960938 L 0.0390625 553.960938 Z M 0.0390625 0.0390625 " clip-rule="nonzero"/></clipPath><clipPath id="cb4a5eb00d"><path d="M 305.167969 12.492188 L 333.398438 42.699219 C 351.296875 61.851562 376.597656 72.328125 402.792969 71.445312 L 444.117188 70.046875 C 454.789062 69.6875 465.132812 73.769531 472.683594 81.316406 C 480.230469 88.867188 484.3125 99.210938 483.953125 109.882812 L 482.554688 151.207031 C 481.667969 177.402344 492.148438 202.703125 511.296875 220.597656 L 541.507812 248.832031 C 549.308594 256.125 553.734375 266.324219 553.734375 277 C 553.734375 287.675781 549.308594 297.875 541.507812 305.167969 L 511.296875 333.398438 C 492.148438 351.296875 481.667969 376.597656 482.554688 402.792969 L 483.953125 444.117188 C 484.3125 454.789062 480.230469 465.132812 472.683594 472.683594 C 465.132812 480.230469 454.789062 484.3125 444.117188 483.953125 L 402.792969 482.554688 C 376.597656 481.667969 351.296875 492.148438 333.398438 511.296875 L 305.167969 541.507812 C 297.875 549.308594 287.675781 553.734375 277 553.734375 C 266.324219 553.734375 256.125 549.308594 248.832031 541.507812 L 220.597656 511.296875 C 202.703125 492.148438 177.402344 481.667969 151.207031 482.554688 L 109.882812 483.953125 C 99.210938 484.3125 88.867188 480.230469 81.316406 472.683594 C 73.769531 465.132812 69.6875 454.789062 70.046875 444.117188 L 71.445312 402.792969 C 72.328125 376.597656 61.851562 351.296875 42.703125 333.398438 L 12.492188 305.167969 C 4.691406 297.875 0.265625 287.675781 0.265625 277 C 0.265625 266.324219 4.691406 256.125 12.492188 248.832031 L 42.703125 220.597656 C 61.851562 202.703125 72.328125 177.402344 71.445312 151.207031 L 70.046875 109.882812 C 69.6875 99.210938 73.769531 88.867188 81.316406 81.316406 C 88.867188 73.769531 99.210938 69.6875 109.882812 70.046875 L 151.207031 71.445312 C 177.402344 72.328125 202.703125 61.851562 220.601562 42.699219 L 248.832031 12.492188 C 256.125 4.691406 266.324219 0.265625 277 0.265625 C 287.675781 0.265625 297.875 4.691406 305.167969 12.492188 Z M 305.167969 12.492188 " clip-rule="nonzero"/></clipPath><clipPath id="54887ba91f"><rect x="0" width="554" y="0" height="554"/></clipPath><clipPath id="24f0e5881f"><rect x="0" width="590" y="0" height="590"/></clipPath><clipPath id="d9e75d637b"><path d="M 0.441406 0.441406 L 765.558594 0.441406 L 765.558594 765.558594 L 0.441406 765.558594 Z M 0.441406 0.441406 " clip-rule="nonzero"/></clipPath><mask id="668efc3e28"><g filter="url(#ce5d696e55)"><rect x="-697" width="2160" fill="#000000" y="-696.999985" height="2159.999904" fill-opacity="0.91"/></g></mask><clipPath id="189956f425"><path d="M 122 122 L 644 122 L 644 644 L 122 644 Z M 122 122 " clip-rule="nonzero"/></clipPath><clipPath id="adab3cd33b"><path d="M 226.480469 21.53125 L 744.46875 226.480469 L 539.519531 744.472656 L 21.527344 539.519531 Z M 226.480469 21.53125 " clip-rule="nonzero"/></clipPath><clipPath id="3222960d97"><path d="M 506.503906 147.410156 L 521.644531 185.886719 C 531.242188 210.277344 550.910156 229.328125 575.59375 238.144531 L 614.535156 252.050781 C 624.589844 255.640625 632.707031 263.242188 636.949219 273.039062 C 641.191406 282.835938 641.179688 293.953125 636.921875 303.746094 L 620.417969 341.65625 C 609.957031 365.691406 610.394531 393.070312 621.613281 416.757812 L 639.316406 454.125 C 643.886719 463.773438 644.253906 474.886719 640.324219 484.816406 C 636.394531 494.742188 628.527344 502.597656 618.589844 506.507812 L 580.113281 521.648438 C 555.722656 531.242188 536.667969 550.914062 527.855469 575.597656 L 513.949219 614.539062 C 510.359375 624.59375 502.757812 632.710938 492.960938 636.953125 C 483.164062 641.195312 472.042969 641.183594 462.253906 636.921875 L 424.34375 620.417969 C 400.308594 609.957031 372.929688 610.394531 349.242188 621.617188 L 311.875 639.320312 C 302.222656 643.890625 291.113281 644.253906 281.183594 640.328125 C 271.253906 636.398438 263.402344 628.527344 259.492188 618.59375 L 244.351562 580.113281 C 234.757812 555.722656 215.085938 536.671875 190.402344 527.855469 L 151.460938 513.953125 C 141.40625 510.359375 133.289062 502.761719 129.046875 492.964844 C 124.804688 483.164062 124.816406 472.046875 129.078125 462.257812 L 145.578125 424.34375 C 156.039062 400.3125 155.605469 372.929688 144.382812 349.242188 L 126.679688 311.875 C 122.109375 302.226562 121.746094 291.113281 125.671875 281.183594 C 129.601562 271.257812 137.472656 263.402344 147.40625 259.492188 L 185.882812 244.355469 C 210.273438 234.757812 229.328125 215.089844 238.140625 190.402344 L 252.046875 151.464844 C 255.636719 141.40625 263.238281 133.292969 273.035156 129.050781 C 282.835938 124.808594 293.953125 124.816406 303.742188 129.078125 L 341.65625 145.582031 C 365.6875 156.042969 393.070312 155.605469 416.757812 144.386719 L 454.125 126.683594 C 463.773438 122.113281 474.886719 121.746094 484.8125 125.675781 C 494.742188 129.601562 502.597656 137.472656 506.503906 147.410156 Z M 506.503906 147.410156 " clip-rule="nonzero"/></clipPath><clipPath id="7dcde8d550"><path d="M 0 0 L 522 0 L 522 522 L 0 522 Z M 0 0 " clip-rule="nonzero"/></clipPath><clipPath id="b409ea0e44"><path d="M 104.480469 -100.46875 L 622.46875 104.480469 L 417.519531 622.472656 L -100.472656 417.519531 Z M 104.480469 -100.46875 " clip-rule="nonzero"/></clipPath><clipPath id="6406b8664c"><path d="M 384.503906 25.410156 L 399.644531 63.886719 C 409.242188 88.277344 428.910156 107.328125 453.59375 116.144531 L 492.535156 130.050781 C 502.589844 133.640625 510.707031 141.242188 514.949219 151.039062 C 519.191406 160.835938 519.179688 171.953125 514.921875 181.746094 L 498.417969 219.65625 C 487.957031 243.691406 488.394531 271.070312 499.613281 294.757812 L 517.316406 332.125 C 521.886719 341.773438 522.253906 352.886719 518.324219 362.816406 C 514.394531 372.742188 506.527344 380.597656 496.589844 384.507812 L 458.113281 399.648438 C 433.722656 409.242188 414.667969 428.914062 405.855469 453.597656 L 391.949219 492.539062 C 388.359375 502.59375 380.757812 510.710938 370.960938 514.953125 C 361.164062 519.195312 350.042969 519.183594 340.253906 514.921875 L 302.34375 498.417969 C 278.308594 487.957031 250.929688 488.394531 227.242188 499.617188 L 189.875 517.320312 C 180.222656 521.890625 169.113281 522.253906 159.183594 518.328125 C 149.253906 514.398438 141.402344 506.527344 137.492188 496.59375 L 122.351562 458.113281 C 112.757812 433.722656 93.085938 414.671875 68.402344 405.855469 L 29.460938 391.953125 C 19.40625 388.359375 11.289062 380.761719 7.046875 370.964844 C 2.804688 361.164062 2.816406 350.046875 7.078125 340.257812 L 23.578125 302.34375 C 34.039062 278.3125 33.605469 250.929688 22.382812 227.242188 L 4.679688 189.875 C 0.109375 180.226562 -0.253906 169.113281 3.671875 159.183594 C 7.601562 149.257812 15.472656 141.402344 25.40625 137.492188 L 63.882812 122.355469 C 88.273438 112.757812 107.328125 93.089844 116.140625 68.402344 L 130.046875 29.464844 C 133.636719 19.40625 141.238281 11.292969 151.035156 7.050781 C 160.835938 2.808594 171.953125 2.816406 181.742188 7.078125 L 219.65625 23.582031 C 243.6875 34.042969 271.070312 33.605469 294.757812 22.386719 L 332.125 4.683594 C 341.773438 0.113281 352.886719 -0.253906 362.8125 3.675781 C 372.742188 7.601562 380.597656 15.472656 384.503906 25.410156 Z M 384.503906 25.410156 " clip-rule="nonzero"/></clipPath><clipPath id="2cd434d80d"><rect x="0" width="522" y="0" height="522"/></clipPath><clipPath id="884c4c671e"><rect x="0" width="766" y="0" height="766"/></clipPath><clipPath id="04a810cabb"><rect x="0" width="766" y="0" height="766"/></clipPath></defs><g clip-path="url(#c8cf9aa895)"><g clip-path="url(#6dbff99bde)"><g transform="matrix(1, 0, 0, 1, 11, 11)"><g clip-path="url(#414947052b)"><g clip-path="url(#123befabb6)"><g clip-path="url(#387b26e28b)"><path fill="url(#62130d4f02)" d="M 0.929688 0.929688 L 0.929688 1477.070312 L 1477.070312 1477.070312 L 1477.070312 0.929688 Z M 0.929688 0.929688 " fill-rule="nonzero"/></g></g></g></g></g></g><g transform="matrix(1, 0, 0, 1, 0, 0.000000000000112861)"><g clip-path="url(#fce9e145b0)"><g mask="url(#ce7573c417)"><g transform="matrix(1, 0, 0, 1, 0, 0.000000000000112861)"><g clip-path="url(#da57c1ea0a)"><g clip-path="url(#bc7250a78e)"><g clip-path="url(#910919b253)"><g clip-path="url(#04f5513ed9)"><g transform="matrix(1, 0, 0, 1, 147, 147)"><g clip-path="url(#443a24837d)"><g clip-path="url(#2b16f5eeee)"><g clip-path="url(#9152c1e5de)"><g clip-path="url(#5601c9e691)"><path fill="#1800ad" d="M 603 -274.683594 L 1480.683594 603 L 603 1480.683594 L -274.683594 603 Z M 603 -274.683594 " fill-opacity="1" fill-rule="nonzero"/></g></g></g></g></g></g></g></g></g></g></g><g mask="url(#7d6fbe3828)"><g transform="matrix(1, 0, 0, 1, 0, 0.000000000000112861)"><g clip-path="url(#525cf88ca9)"><g clip-path="url(#1017c9e69d)"><g clip-path="url(#75675596ff)"><g clip-path="url(#9ecfda70bf)"><g transform="matrix(1, 0, 0, 1, 189, 189)"><g clip-path="url(#5ce4a0c5d6)"><g clip-path="url(#ac71f614cb)"><g clip-path="url(#55bd6db923)"><g clip-path="url(#fa81a71bd3)"><path fill="#1800ad" d="M 900.355469 -248.421875 L 1370.417969 900.359375 L 221.640625 1370.421875 L -248.425781 221.640625 Z M 900.355469 -248.421875 " fill-opacity="1" fill-rule="nonzero"/></g></g></g></g></g></g></g></g></g></g></g></g></g><g transform="matrix(1, 0, 0, 1, 64, 64)"><g clip-path="url(#e07487c8d8)"><g mask="url(#96c8ef3de1)"><g transform="matrix(1, 0, 0, 1, 108, 108)"><g clip-path="url(#c50654ad9e)"><g clip-path="url(#0a92cc4dd8)"><g clip-path="url(#dfb754081b)"><g clip-path="url(#618ba95841)"><g transform="matrix(1, 0, 0, 1, 108, 108)"><g clip-path="url(#c7780e4886)"><g clip-path="url(#d1e9495558)"><g clip-path="url(#9d722d26a4)"><g clip-path="url(#2553d315b7)"><path fill="#5170ff" d="M 73.996094 -107.820312 L 1047.820312 73.996094 L 866.003906 1047.820312 L -107.820312 866.003906 Z M 73.996094 -107.820312 " fill-opacity="1" fill-rule="nonzero"/></g></g></g></g></g></g></g></g></g></g></g><g clip-path="url(#4d28498bcc)"><g mask="url(#5f07a607a1)"><g transform="matrix(1, 0, 0, 1, 0.000000000000014211, 0.000000000000113687)"><g clip-path="url(#5f489993db)"><g clip-path="url(#dd81053e50)"><g clip-path="url(#563609feb1)"><g clip-path="url(#b31177caa0)"><g transform="matrix(1, 0, 0, 1, 217, 217)"><g clip-path="url(#2ddd864ad3)"><g clip-path="url(#02f523077f)"><g clip-path="url(#03e17524ae)"><g clip-path="url(#fd0f4e17db)"><path fill="#5170ff" d="M 326.644531 -216.878906 L 1154.878906 326.644531 L 611.355469 1154.878906 L -216.878906 611.355469 Z M 326.644531 -216.878906 " fill-opacity="1" fill-rule="nonzero"/></g></g></g></g></g></g></g></g></g></g></g></g></g></g><g transform="matrix(1, 0, 0, 1, 367, 367)"><g clip-path="url(#04a810cabb)"><g mask="url(#365f0849c3)"><g transform="matrix(1, 0, 0, 1, 88, 88)"><g clip-path="url(#24f0e5881f)"><g clip-path="url(#7e15a3f743)"><g clip-path="url(#3be118109d)"><g transform="matrix(1, 0, 0, 1, 18, 18)"><g clip-path="url(#54887ba91f)"><g clip-path="url(#9572c6906b)"><g clip-path="url(#cb4a5eb00d)"><rect x="-1278.2" width="3110.4" fill="#0cc0df" height="3110.399862" y="-1278.199964" fill-opacity="1"/></g></g></g></g></g></g></g></g></g><g clip-path="url(#d9e75d637b)"><g mask="url(#668efc3e28)"><g transform="matrix(1, 0, 0, 1, 0, 0.000000000000113687)"><g clip-path="url(#884c4c671e)"><g clip-path="url(#189956f425)"><g clip-path="url(#adab3cd33b)"><g clip-path="url(#3222960d97)"><g transform="matrix(1, 0, 0, 1, 122, 122)"><g clip-path="url(#2cd434d80d)"><g clip-path="url(#7dcde8d550)"><g clip-path="url(#b409ea0e44)"><g clip-path="url(#6406b8664c)"><path fill="#0cc0df" d="M 95.425781 -121.382812 L 643.382812 95.425781 L 426.574219 643.382812 L -121.382812 426.574219 Z M 95.425781 -121.382812 " fill-opacity="1" fill-rule="nonzero"/></g></g></g></g></g></g></g></g></g></g></g></g></g></g></svg>