ISO-10303-21;
HEADER;
/* Generated by software containing ST-Developer
 * from STEP Tools, Inc. (www.steptools.com) 
 */
/* OPTION: using custom renumber hook */

FILE_DESCRIPTION(
/* description */ ('STEP AP242 Edition 2',
'CAx-IF Rec.Pracs.---Representation and Presentation of Product Manufa
cturing Information (PMI)---4.0---2014-10-13',
'CAx-IF Rec.Pracs.---3D Tessellated Geometry---0.4---2014-09-14','2;1',
'CAx-IF Rec.Pracs.---User Defined Attributes---1.5---2016-08-15'),
/* implementation_level */ '2;1');

FILE_NAME(
/* name */ 'Assembly 1 - Part 2',
/* time_stamp */ '2026-08-03T13:48:39Z',
/* author */ (''),
/* organization */ (''),
/* preprocessor_version */ 'ST-DEVELOPER v20',
/* originating_system */ 'ONSHAPE BY PTC INC, 1.218',
/* authorisation */ '  ');

FILE_SCHEMA (('AP242_MANAGED_MODEL_BASED_3D_ENGINEERING_MIM_LF { 1 0 10303 442 3 1 4 }'));
ENDSEC;

DATA;
#10=SHAPE_REPRESENTATION_RELATIONSHIP('','',#1105,#11);
#11=ADVANCED_BREP_SHAPE_REPRESENTATION('',(#1103),#1739);
#12=ELLIPSE('',#1121,0.00282842712474619,0.002);
#13=ELLIPSE('',#1122,0.00282842712474619,0.002);
#14=ELLIPSE('',#1124,0.00282842712474619,0.002);
#15=ELLIPSE('',#1126,0.00282842712474619,0.002);
#16=ELLIPSE('',#1129,0.00282842712474619,0.002);
#17=ELLIPSE('',#1130,0.00282842712474619,0.002);
#18=ELLIPSE('',#1132,0.00282842712474619,0.002);
#19=ELLIPSE('',#1134,0.00282842712474619,0.002);
#20=CYLINDRICAL_SURFACE('',#1120,0.002);
#21=CYLINDRICAL_SURFACE('',#1123,0.002);
#22=CYLINDRICAL_SURFACE('',#1125,0.002);
#23=CYLINDRICAL_SURFACE('',#1127,0.002);
#24=CYLINDRICAL_SURFACE('',#1128,0.002);
#25=CYLINDRICAL_SURFACE('',#1131,0.002);
#26=CYLINDRICAL_SURFACE('',#1133,0.002);
#27=CYLINDRICAL_SURFACE('',#1135,0.002);
#28=ORIENTED_EDGE('',*,*,#324,.T.);
#29=ORIENTED_EDGE('',*,*,#325,.T.);
#30=ORIENTED_EDGE('',*,*,#326,.F.);
#31=ORIENTED_EDGE('',*,*,#327,.F.);
#32=ORIENTED_EDGE('',*,*,#328,.T.);
#33=ORIENTED_EDGE('',*,*,#329,.T.);
#34=ORIENTED_EDGE('',*,*,#330,.F.);
#35=ORIENTED_EDGE('',*,*,#331,.F.);
#36=ORIENTED_EDGE('',*,*,#332,.T.);
#37=ORIENTED_EDGE('',*,*,#333,.T.);
#38=ORIENTED_EDGE('',*,*,#334,.F.);
#39=ORIENTED_EDGE('',*,*,#335,.F.);
#40=ORIENTED_EDGE('',*,*,#336,.T.);
#41=ORIENTED_EDGE('',*,*,#337,.T.);
#42=ORIENTED_EDGE('',*,*,#338,.F.);
#43=ORIENTED_EDGE('',*,*,#339,.F.);
#44=ORIENTED_EDGE('',*,*,#340,.T.);
#45=ORIENTED_EDGE('',*,*,#341,.T.);
#46=ORIENTED_EDGE('',*,*,#342,.F.);
#47=ORIENTED_EDGE('',*,*,#343,.F.);
#48=ORIENTED_EDGE('',*,*,#344,.T.);
#49=ORIENTED_EDGE('',*,*,#345,.T.);
#50=ORIENTED_EDGE('',*,*,#346,.F.);
#51=ORIENTED_EDGE('',*,*,#347,.F.);
#52=ORIENTED_EDGE('',*,*,#348,.T.);
#53=ORIENTED_EDGE('',*,*,#349,.T.);
#54=ORIENTED_EDGE('',*,*,#350,.F.);
#55=ORIENTED_EDGE('',*,*,#351,.F.);
#56=ORIENTED_EDGE('',*,*,#352,.T.);
#57=ORIENTED_EDGE('',*,*,#353,.T.);
#58=ORIENTED_EDGE('',*,*,#354,.F.);
#59=ORIENTED_EDGE('',*,*,#355,.F.);
#60=ORIENTED_EDGE('',*,*,#356,.T.);
#61=ORIENTED_EDGE('',*,*,#357,.T.);
#62=ORIENTED_EDGE('',*,*,#358,.F.);
#63=ORIENTED_EDGE('',*,*,#359,.F.);
#64=ORIENTED_EDGE('',*,*,#360,.F.);
#65=ORIENTED_EDGE('',*,*,#361,.F.);
#66=ORIENTED_EDGE('',*,*,#362,.T.);
#67=ORIENTED_EDGE('',*,*,#363,.T.);
#68=ORIENTED_EDGE('',*,*,#364,.T.);
#69=ORIENTED_EDGE('',*,*,#365,.T.);
#70=ORIENTED_EDGE('',*,*,#366,.T.);
#71=ORIENTED_EDGE('',*,*,#367,.T.);
#72=ORIENTED_EDGE('',*,*,#368,.T.);
#73=ORIENTED_EDGE('',*,*,#369,.T.);
#74=ORIENTED_EDGE('',*,*,#370,.F.);
#75=ORIENTED_EDGE('',*,*,#371,.F.);
#76=ORIENTED_EDGE('',*,*,#372,.T.);
#77=ORIENTED_EDGE('',*,*,#373,.T.);
#78=ORIENTED_EDGE('',*,*,#374,.F.);
#79=ORIENTED_EDGE('',*,*,#375,.F.);
#80=ORIENTED_EDGE('',*,*,#376,.T.);
#81=ORIENTED_EDGE('',*,*,#377,.T.);
#82=ORIENTED_EDGE('',*,*,#378,.F.);
#83=ORIENTED_EDGE('',*,*,#379,.F.);
#84=ORIENTED_EDGE('',*,*,#380,.T.);
#85=ORIENTED_EDGE('',*,*,#381,.T.);
#86=ORIENTED_EDGE('',*,*,#382,.F.);
#87=ORIENTED_EDGE('',*,*,#383,.F.);
#88=ORIENTED_EDGE('',*,*,#384,.T.);
#89=ORIENTED_EDGE('',*,*,#385,.T.);
#90=ORIENTED_EDGE('',*,*,#386,.F.);
#91=ORIENTED_EDGE('',*,*,#387,.F.);
#92=ORIENTED_EDGE('',*,*,#388,.T.);
#93=ORIENTED_EDGE('',*,*,#389,.T.);
#94=ORIENTED_EDGE('',*,*,#390,.F.);
#95=ORIENTED_EDGE('',*,*,#391,.F.);
#96=ORIENTED_EDGE('',*,*,#392,.T.);
#97=ORIENTED_EDGE('',*,*,#393,.T.);
#98=ORIENTED_EDGE('',*,*,#394,.F.);
#99=ORIENTED_EDGE('',*,*,#395,.F.);
#100=ORIENTED_EDGE('',*,*,#396,.F.);
#101=ORIENTED_EDGE('',*,*,#397,.T.);
#102=ORIENTED_EDGE('',*,*,#398,.T.);
#103=ORIENTED_EDGE('',*,*,#336,.F.);
#104=ORIENTED_EDGE('',*,*,#399,.F.);
#105=ORIENTED_EDGE('',*,*,#400,.T.);
#106=ORIENTED_EDGE('',*,*,#338,.T.);
#107=ORIENTED_EDGE('',*,*,#401,.F.);
#108=ORIENTED_EDGE('',*,*,#402,.T.);
#109=ORIENTED_EDGE('',*,*,#403,.T.);
#110=ORIENTED_EDGE('',*,*,#404,.T.);
#111=ORIENTED_EDGE('',*,*,#405,.T.);
#112=ORIENTED_EDGE('',*,*,#406,.F.);
#113=ORIENTED_EDGE('',*,*,#407,.T.);
#114=ORIENTED_EDGE('',*,*,#408,.T.);
#115=ORIENTED_EDGE('',*,*,#409,.F.);
#116=ORIENTED_EDGE('',*,*,#340,.F.);
#117=ORIENTED_EDGE('',*,*,#410,.F.);
#118=ORIENTED_EDGE('',*,*,#406,.T.);
#119=ORIENTED_EDGE('',*,*,#411,.T.);
#120=ORIENTED_EDGE('',*,*,#341,.F.);
#121=ORIENTED_EDGE('',*,*,#411,.F.);
#122=ORIENTED_EDGE('',*,*,#409,.T.);
#123=ORIENTED_EDGE('',*,*,#412,.T.);
#124=ORIENTED_EDGE('',*,*,#342,.T.);
#125=ORIENTED_EDGE('',*,*,#412,.F.);
#126=ORIENTED_EDGE('',*,*,#408,.F.);
#127=ORIENTED_EDGE('',*,*,#413,.T.);
#128=ORIENTED_EDGE('',*,*,#343,.T.);
#129=ORIENTED_EDGE('',*,*,#413,.F.);
#130=ORIENTED_EDGE('',*,*,#407,.F.);
#131=ORIENTED_EDGE('',*,*,#410,.T.);
#132=ORIENTED_EDGE('',*,*,#414,.T.);
#133=ORIENTED_EDGE('',*,*,#415,.T.);
#134=ORIENTED_EDGE('',*,*,#416,.F.);
#135=ORIENTED_EDGE('',*,*,#417,.T.);
#136=ORIENTED_EDGE('',*,*,#416,.T.);
#137=ORIENTED_EDGE('',*,*,#418,.T.);
#138=ORIENTED_EDGE('',*,*,#419,.F.);
#139=ORIENTED_EDGE('',*,*,#420,.T.);
#140=ORIENTED_EDGE('',*,*,#419,.T.);
#141=ORIENTED_EDGE('',*,*,#421,.T.);
#142=ORIENTED_EDGE('',*,*,#422,.F.);
#143=ORIENTED_EDGE('',*,*,#423,.T.);
#144=ORIENTED_EDGE('',*,*,#422,.T.);
#145=ORIENTED_EDGE('',*,*,#424,.T.);
#146=ORIENTED_EDGE('',*,*,#414,.F.);
#147=ORIENTED_EDGE('',*,*,#425,.T.);
#148=ORIENTED_EDGE('',*,*,#426,.F.);
#149=ORIENTED_EDGE('',*,*,#405,.F.);
#150=ORIENTED_EDGE('',*,*,#427,.F.);
#151=ORIENTED_EDGE('',*,*,#424,.F.);
#152=ORIENTED_EDGE('',*,*,#427,.T.);
#153=ORIENTED_EDGE('',*,*,#404,.F.);
#154=ORIENTED_EDGE('',*,*,#428,.F.);
#155=ORIENTED_EDGE('',*,*,#415,.F.);
#156=ORIENTED_EDGE('',*,*,#426,.T.);
#157=ORIENTED_EDGE('',*,*,#421,.F.);
#158=ORIENTED_EDGE('',*,*,#429,.F.);
#159=ORIENTED_EDGE('',*,*,#402,.F.);
#160=ORIENTED_EDGE('',*,*,#428,.T.);
#161=ORIENTED_EDGE('',*,*,#403,.F.);
#162=ORIENTED_EDGE('',*,*,#429,.T.);
#163=ORIENTED_EDGE('',*,*,#418,.F.);
#164=ORIENTED_EDGE('',*,*,#430,.F.);
#165=ORIENTED_EDGE('',*,*,#367,.F.);
#166=ORIENTED_EDGE('',*,*,#431,.F.);
#167=ORIENTED_EDGE('',*,*,#420,.F.);
#168=ORIENTED_EDGE('',*,*,#431,.T.);
#169=ORIENTED_EDGE('',*,*,#366,.F.);
#170=ORIENTED_EDGE('',*,*,#432,.F.);
#171=ORIENTED_EDGE('',*,*,#417,.F.);
#172=ORIENTED_EDGE('',*,*,#430,.T.);
#173=ORIENTED_EDGE('',*,*,#423,.F.);
#174=ORIENTED_EDGE('',*,*,#433,.F.);
#175=ORIENTED_EDGE('',*,*,#364,.F.);
#176=ORIENTED_EDGE('',*,*,#432,.T.);
#177=ORIENTED_EDGE('',*,*,#365,.F.);
#178=ORIENTED_EDGE('',*,*,#433,.T.);
#179=ORIENTED_EDGE('',*,*,#425,.F.);
#180=ORIENTED_EDGE('',*,*,#363,.F.);
#181=ORIENTED_EDGE('',*,*,#434,.F.);
#182=ORIENTED_EDGE('',*,*,#435,.T.);
#183=ORIENTED_EDGE('',*,*,#396,.T.);
#184=ORIENTED_EDGE('',*,*,#339,.T.);
#185=ORIENTED_EDGE('',*,*,#400,.F.);
#186=ORIENTED_EDGE('',*,*,#436,.T.);
#187=ORIENTED_EDGE('',*,*,#437,.T.);
#188=ORIENTED_EDGE('',*,*,#361,.T.);
#189=ORIENTED_EDGE('',*,*,#438,.F.);
#190=ORIENTED_EDGE('',*,*,#439,.F.);
#191=ORIENTED_EDGE('',*,*,#401,.T.);
#192=ORIENTED_EDGE('',*,*,#337,.F.);
#193=ORIENTED_EDGE('',*,*,#398,.F.);
#194=ORIENTED_EDGE('',*,*,#440,.F.);
#195=ORIENTED_EDGE('',*,*,#441,.T.);
#196=ORIENTED_EDGE('',*,*,#399,.T.);
#197=ORIENTED_EDGE('',*,*,#439,.T.);
#198=ORIENTED_EDGE('',*,*,#442,.T.);
#199=ORIENTED_EDGE('',*,*,#436,.F.);
#200=ORIENTED_EDGE('',*,*,#360,.T.);
#201=ORIENTED_EDGE('',*,*,#437,.F.);
#202=ORIENTED_EDGE('',*,*,#442,.F.);
#203=ORIENTED_EDGE('',*,*,#438,.T.);
#204=ORIENTED_EDGE('',*,*,#362,.F.);
#205=ORIENTED_EDGE('',*,*,#441,.F.);
#206=ORIENTED_EDGE('',*,*,#443,.T.);
#207=ORIENTED_EDGE('',*,*,#434,.T.);
#208=ORIENTED_EDGE('',*,*,#435,.F.);
#209=ORIENTED_EDGE('',*,*,#443,.F.);
#210=ORIENTED_EDGE('',*,*,#440,.T.);
#211=ORIENTED_EDGE('',*,*,#397,.F.);
#212=ORIENTED_EDGE('',*,*,#444,.T.);
#213=ORIENTED_EDGE('',*,*,#344,.F.);
#214=ORIENTED_EDGE('',*,*,#445,.F.);
#215=ORIENTED_EDGE('',*,*,#369,.F.);
#216=ORIENTED_EDGE('',*,*,#370,.T.);
#217=ORIENTED_EDGE('',*,*,#445,.T.);
#218=ORIENTED_EDGE('',*,*,#347,.T.);
#219=ORIENTED_EDGE('',*,*,#446,.F.);
#220=ORIENTED_EDGE('',*,*,#371,.T.);
#221=ORIENTED_EDGE('',*,*,#446,.T.);
#222=ORIENTED_EDGE('',*,*,#346,.T.);
#223=ORIENTED_EDGE('',*,*,#447,.F.);
#224=ORIENTED_EDGE('',*,*,#447,.T.);
#225=ORIENTED_EDGE('',*,*,#345,.F.);
#226=ORIENTED_EDGE('',*,*,#444,.F.);
#227=ORIENTED_EDGE('',*,*,#368,.F.);
#228=ORIENTED_EDGE('',*,*,#448,.T.);
#229=ORIENTED_EDGE('',*,*,#332,.F.);
#230=ORIENTED_EDGE('',*,*,#449,.F.);
#231=ORIENTED_EDGE('',*,*,#373,.F.);
#232=ORIENTED_EDGE('',*,*,#374,.T.);
#233=ORIENTED_EDGE('',*,*,#449,.T.);
#234=ORIENTED_EDGE('',*,*,#335,.T.);
#235=ORIENTED_EDGE('',*,*,#450,.F.);
#236=ORIENTED_EDGE('',*,*,#375,.T.);
#237=ORIENTED_EDGE('',*,*,#450,.T.);
#238=ORIENTED_EDGE('',*,*,#334,.T.);
#239=ORIENTED_EDGE('',*,*,#451,.F.);
#240=ORIENTED_EDGE('',*,*,#451,.T.);
#241=ORIENTED_EDGE('',*,*,#333,.F.);
#242=ORIENTED_EDGE('',*,*,#448,.F.);
#243=ORIENTED_EDGE('',*,*,#372,.F.);
#244=ORIENTED_EDGE('',*,*,#452,.T.);
#245=ORIENTED_EDGE('',*,*,#348,.F.);
#246=ORIENTED_EDGE('',*,*,#453,.F.);
#247=ORIENTED_EDGE('',*,*,#377,.F.);
#248=ORIENTED_EDGE('',*,*,#378,.T.);
#249=ORIENTED_EDGE('',*,*,#453,.T.);
#250=ORIENTED_EDGE('',*,*,#351,.T.);
#251=ORIENTED_EDGE('',*,*,#454,.F.);
#252=ORIENTED_EDGE('',*,*,#379,.T.);
#253=ORIENTED_EDGE('',*,*,#454,.T.);
#254=ORIENTED_EDGE('',*,*,#350,.T.);
#255=ORIENTED_EDGE('',*,*,#455,.F.);
#256=ORIENTED_EDGE('',*,*,#455,.T.);
#257=ORIENTED_EDGE('',*,*,#349,.F.);
#258=ORIENTED_EDGE('',*,*,#452,.F.);
#259=ORIENTED_EDGE('',*,*,#376,.F.);
#260=ORIENTED_EDGE('',*,*,#456,.T.);
#261=ORIENTED_EDGE('',*,*,#328,.F.);
#262=ORIENTED_EDGE('',*,*,#457,.F.);
#263=ORIENTED_EDGE('',*,*,#381,.F.);
#264=ORIENTED_EDGE('',*,*,#382,.T.);
#265=ORIENTED_EDGE('',*,*,#457,.T.);
#266=ORIENTED_EDGE('',*,*,#331,.T.);
#267=ORIENTED_EDGE('',*,*,#458,.F.);
#268=ORIENTED_EDGE('',*,*,#383,.T.);
#269=ORIENTED_EDGE('',*,*,#458,.T.);
#270=ORIENTED_EDGE('',*,*,#330,.T.);
#271=ORIENTED_EDGE('',*,*,#459,.F.);
#272=ORIENTED_EDGE('',*,*,#459,.T.);
#273=ORIENTED_EDGE('',*,*,#329,.F.);
#274=ORIENTED_EDGE('',*,*,#456,.F.);
#275=ORIENTED_EDGE('',*,*,#380,.F.);
#276=ORIENTED_EDGE('',*,*,#460,.T.);
#277=ORIENTED_EDGE('',*,*,#352,.F.);
#278=ORIENTED_EDGE('',*,*,#461,.F.);
#279=ORIENTED_EDGE('',*,*,#385,.F.);
#280=ORIENTED_EDGE('',*,*,#386,.T.);
#281=ORIENTED_EDGE('',*,*,#461,.T.);
#282=ORIENTED_EDGE('',*,*,#355,.T.);
#283=ORIENTED_EDGE('',*,*,#462,.F.);
#284=ORIENTED_EDGE('',*,*,#387,.T.);
#285=ORIENTED_EDGE('',*,*,#462,.T.);
#286=ORIENTED_EDGE('',*,*,#354,.T.);
#287=ORIENTED_EDGE('',*,*,#463,.F.);
#288=ORIENTED_EDGE('',*,*,#463,.T.);
#289=ORIENTED_EDGE('',*,*,#353,.F.);
#290=ORIENTED_EDGE('',*,*,#460,.F.);
#291=ORIENTED_EDGE('',*,*,#384,.F.);
#292=ORIENTED_EDGE('',*,*,#464,.T.);
#293=ORIENTED_EDGE('',*,*,#324,.F.);
#294=ORIENTED_EDGE('',*,*,#465,.F.);
#295=ORIENTED_EDGE('',*,*,#389,.F.);
#296=ORIENTED_EDGE('',*,*,#390,.T.);
#297=ORIENTED_EDGE('',*,*,#465,.T.);
#298=ORIENTED_EDGE('',*,*,#327,.T.);
#299=ORIENTED_EDGE('',*,*,#466,.F.);
#300=ORIENTED_EDGE('',*,*,#391,.T.);
#301=ORIENTED_EDGE('',*,*,#466,.T.);
#302=ORIENTED_EDGE('',*,*,#326,.T.);
#303=ORIENTED_EDGE('',*,*,#467,.F.);
#304=ORIENTED_EDGE('',*,*,#467,.T.);
#305=ORIENTED_EDGE('',*,*,#325,.F.);
#306=ORIENTED_EDGE('',*,*,#464,.F.);
#307=ORIENTED_EDGE('',*,*,#388,.F.);
#308=ORIENTED_EDGE('',*,*,#468,.T.);
#309=ORIENTED_EDGE('',*,*,#356,.F.);
#310=ORIENTED_EDGE('',*,*,#469,.F.);
#311=ORIENTED_EDGE('',*,*,#393,.F.);
#312=ORIENTED_EDGE('',*,*,#394,.T.);
#313=ORIENTED_EDGE('',*,*,#469,.T.);
#314=ORIENTED_EDGE('',*,*,#359,.T.);
#315=ORIENTED_EDGE('',*,*,#470,.F.);
#316=ORIENTED_EDGE('',*,*,#395,.T.);
#317=ORIENTED_EDGE('',*,*,#470,.T.);
#318=ORIENTED_EDGE('',*,*,#358,.T.);
#319=ORIENTED_EDGE('',*,*,#471,.F.);
#320=ORIENTED_EDGE('',*,*,#471,.T.);
#321=ORIENTED_EDGE('',*,*,#357,.F.);
#322=ORIENTED_EDGE('',*,*,#468,.F.);
#323=ORIENTED_EDGE('',*,*,#392,.F.);
#324=EDGE_CURVE('',#472,#473,#568,.T.);
#325=EDGE_CURVE('',#473,#474,#569,.T.);
#326=EDGE_CURVE('',#475,#474,#570,.T.);
#327=EDGE_CURVE('',#472,#475,#571,.T.);
#328=EDGE_CURVE('',#476,#477,#572,.T.);
#329=EDGE_CURVE('',#477,#478,#573,.T.);
#330=EDGE_CURVE('',#479,#478,#574,.T.);
#331=EDGE_CURVE('',#476,#479,#575,.T.);
#332=EDGE_CURVE('',#480,#481,#576,.T.);
#333=EDGE_CURVE('',#481,#482,#577,.T.);
#334=EDGE_CURVE('',#483,#482,#578,.T.);
#335=EDGE_CURVE('',#480,#483,#579,.T.);
#336=EDGE_CURVE('',#484,#485,#580,.T.);
#337=EDGE_CURVE('',#485,#486,#581,.T.);
#338=EDGE_CURVE('',#487,#486,#582,.T.);
#339=EDGE_CURVE('',#484,#487,#583,.T.);
#340=EDGE_CURVE('',#488,#489,#584,.T.);
#341=EDGE_CURVE('',#489,#490,#585,.T.);
#342=EDGE_CURVE('',#491,#490,#586,.T.);
#343=EDGE_CURVE('',#488,#491,#587,.T.);
#344=EDGE_CURVE('',#492,#493,#588,.T.);
#345=EDGE_CURVE('',#493,#494,#589,.T.);
#346=EDGE_CURVE('',#495,#494,#590,.T.);
#347=EDGE_CURVE('',#492,#495,#591,.T.);
#348=EDGE_CURVE('',#496,#497,#592,.T.);
#349=EDGE_CURVE('',#497,#498,#593,.T.);
#350=EDGE_CURVE('',#499,#498,#594,.T.);
#351=EDGE_CURVE('',#496,#499,#595,.T.);
#352=EDGE_CURVE('',#500,#501,#596,.T.);
#353=EDGE_CURVE('',#501,#502,#597,.T.);
#354=EDGE_CURVE('',#503,#502,#598,.T.);
#355=EDGE_CURVE('',#500,#503,#599,.T.);
#356=EDGE_CURVE('',#504,#505,#600,.T.);
#357=EDGE_CURVE('',#505,#506,#601,.T.);
#358=EDGE_CURVE('',#507,#506,#602,.T.);
#359=EDGE_CURVE('',#504,#507,#603,.T.);
#360=EDGE_CURVE('',#508,#509,#604,.T.);
#361=EDGE_CURVE('',#510,#508,#605,.T.);
#362=EDGE_CURVE('',#510,#511,#606,.T.);
#363=EDGE_CURVE('',#511,#509,#607,.T.);
#364=EDGE_CURVE('',#512,#513,#608,.T.);
#365=EDGE_CURVE('',#513,#514,#609,.F.);
#366=EDGE_CURVE('',#514,#515,#610,.F.);
#367=EDGE_CURVE('',#515,#512,#611,.T.);
#368=EDGE_CURVE('',#516,#517,#612,.T.);
#369=EDGE_CURVE('',#517,#518,#613,.T.);
#370=EDGE_CURVE('',#519,#518,#614,.T.);
#371=EDGE_CURVE('',#516,#519,#615,.T.);
#372=EDGE_CURVE('',#520,#521,#616,.T.);
#373=EDGE_CURVE('',#521,#522,#617,.T.);
#374=EDGE_CURVE('',#523,#522,#618,.T.);
#375=EDGE_CURVE('',#520,#523,#619,.T.);
#376=EDGE_CURVE('',#524,#525,#620,.T.);
#377=EDGE_CURVE('',#525,#526,#621,.T.);
#378=EDGE_CURVE('',#527,#526,#622,.T.);
#379=EDGE_CURVE('',#524,#527,#623,.T.);
#380=EDGE_CURVE('',#528,#529,#624,.T.);
#381=EDGE_CURVE('',#529,#530,#625,.T.);
#382=EDGE_CURVE('',#531,#530,#626,.T.);
#383=EDGE_CURVE('',#528,#531,#627,.T.);
#384=EDGE_CURVE('',#532,#533,#628,.T.);
#385=EDGE_CURVE('',#533,#534,#629,.T.);
#386=EDGE_CURVE('',#535,#534,#630,.T.);
#387=EDGE_CURVE('',#532,#535,#631,.T.);
#388=EDGE_CURVE('',#536,#537,#632,.T.);
#389=EDGE_CURVE('',#537,#538,#633,.T.);
#390=EDGE_CURVE('',#539,#538,#634,.T.);
#391=EDGE_CURVE('',#536,#539,#635,.T.);
#392=EDGE_CURVE('',#540,#541,#636,.T.);
#393=EDGE_CURVE('',#541,#542,#637,.T.);
#394=EDGE_CURVE('',#543,#542,#638,.T.);
#395=EDGE_CURVE('',#540,#543,#639,.T.);
#396=EDGE_CURVE('',#544,#484,#640,.T.);
#397=EDGE_CURVE('',#544,#545,#641,.T.);
#398=EDGE_CURVE('',#545,#485,#642,.T.);
#399=EDGE_CURVE('',#546,#547,#643,.T.);
#400=EDGE_CURVE('',#546,#487,#644,.T.);
#401=EDGE_CURVE('',#547,#486,#645,.T.);
#402=EDGE_CURVE('',#548,#549,#646,.F.);
#403=EDGE_CURVE('',#549,#550,#647,.F.);
#404=EDGE_CURVE('',#550,#551,#648,.T.);
#405=EDGE_CURVE('',#551,#548,#649,.T.);
#406=EDGE_CURVE('',#552,#553,#650,.T.);
#407=EDGE_CURVE('',#552,#554,#651,.T.);
#408=EDGE_CURVE('',#554,#555,#652,.T.);
#409=EDGE_CURVE('',#553,#555,#653,.T.);
#410=EDGE_CURVE('',#552,#488,#654,.T.);
#411=EDGE_CURVE('',#553,#489,#655,.T.);
#412=EDGE_CURVE('',#555,#490,#656,.T.);
#413=EDGE_CURVE('',#554,#491,#657,.T.);
#414=EDGE_CURVE('',#556,#557,#658,.T.);
#415=EDGE_CURVE('',#557,#558,#659,.F.);
#416=EDGE_CURVE('',#559,#558,#660,.T.);
#417=EDGE_CURVE('',#559,#556,#661,.T.);
#418=EDGE_CURVE('',#558,#560,#662,.T.);
#419=EDGE_CURVE('',#561,#560,#663,.T.);
#420=EDGE_CURVE('',#561,#559,#664,.F.);
#421=EDGE_CURVE('',#560,#562,#665,.T.);
#422=EDGE_CURVE('',#563,#562,#666,.T.);
#423=EDGE_CURVE('',#563,#561,#667,.F.);
#424=EDGE_CURVE('',#562,#557,#668,.F.);
#425=EDGE_CURVE('',#556,#563,#669,.T.);
#426=EDGE_CURVE('',#548,#562,#12,.T.);
#427=EDGE_CURVE('',#557,#551,#13,.F.);
#428=EDGE_CURVE('',#558,#550,#14,.F.);
#429=EDGE_CURVE('',#549,#560,#15,.T.);
#430=EDGE_CURVE('',#512,#561,#16,.F.);
#431=EDGE_CURVE('',#559,#515,#17,.T.);
#432=EDGE_CURVE('',#556,#514,#18,.T.);
#433=EDGE_CURVE('',#513,#563,#19,.F.);
#434=EDGE_CURVE('',#564,#511,#670,.T.);
#435=EDGE_CURVE('',#564,#544,#671,.T.);
#436=EDGE_CURVE('',#546,#565,#672,.T.);
#437=EDGE_CURVE('',#565,#509,#673,.T.);
#438=EDGE_CURVE('',#566,#508,#674,.T.);
#439=EDGE_CURVE('',#547,#566,#675,.T.);
#440=EDGE_CURVE('',#567,#545,#676,.T.);
#441=EDGE_CURVE('',#567,#510,#677,.T.);
#442=EDGE_CURVE('',#566,#565,#678,.T.);
#443=EDGE_CURVE('',#567,#564,#679,.T.);
#444=EDGE_CURVE('',#517,#493,#680,.T.);
#445=EDGE_CURVE('',#518,#492,#681,.T.);
#446=EDGE_CURVE('',#519,#495,#682,.T.);
#447=EDGE_CURVE('',#516,#494,#683,.T.);
#448=EDGE_CURVE('',#521,#481,#684,.T.);
#449=EDGE_CURVE('',#522,#480,#685,.T.);
#450=EDGE_CURVE('',#523,#483,#686,.T.);
#451=EDGE_CURVE('',#520,#482,#687,.T.);
#452=EDGE_CURVE('',#525,#497,#688,.T.);
#453=EDGE_CURVE('',#526,#496,#689,.T.);
#454=EDGE_CURVE('',#527,#499,#690,.T.);
#455=EDGE_CURVE('',#524,#498,#691,.T.);
#456=EDGE_CURVE('',#529,#477,#692,.T.);
#457=EDGE_CURVE('',#530,#476,#693,.T.);
#458=EDGE_CURVE('',#531,#479,#694,.T.);
#459=EDGE_CURVE('',#528,#478,#695,.T.);
#460=EDGE_CURVE('',#533,#501,#696,.T.);
#461=EDGE_CURVE('',#534,#500,#697,.T.);
#462=EDGE_CURVE('',#535,#503,#698,.T.);
#463=EDGE_CURVE('',#532,#502,#699,.T.);
#464=EDGE_CURVE('',#537,#473,#700,.T.);
#465=EDGE_CURVE('',#538,#472,#701,.T.);
#466=EDGE_CURVE('',#539,#475,#702,.T.);
#467=EDGE_CURVE('',#536,#474,#703,.T.);
#468=EDGE_CURVE('',#541,#505,#704,.T.);
#469=EDGE_CURVE('',#542,#504,#705,.T.);
#470=EDGE_CURVE('',#543,#507,#706,.T.);
#471=EDGE_CURVE('',#540,#506,#707,.T.);
#472=VERTEX_POINT('',#1441);
#473=VERTEX_POINT('',#1442);
#474=VERTEX_POINT('',#1444);
#475=VERTEX_POINT('',#1446);
#476=VERTEX_POINT('',#1449);
#477=VERTEX_POINT('',#1450);
#478=VERTEX_POINT('',#1452);
#479=VERTEX_POINT('',#1454);
#480=VERTEX_POINT('',#1457);
#481=VERTEX_POINT('',#1458);
#482=VERTEX_POINT('',#1460);
#483=VERTEX_POINT('',#1462);
#484=VERTEX_POINT('',#1465);
#485=VERTEX_POINT('',#1466);
#486=VERTEX_POINT('',#1468);
#487=VERTEX_POINT('',#1470);
#488=VERTEX_POINT('',#1473);
#489=VERTEX_POINT('',#1474);
#490=VERTEX_POINT('',#1476);
#491=VERTEX_POINT('',#1478);
#492=VERTEX_POINT('',#1481);
#493=VERTEX_POINT('',#1482);
#494=VERTEX_POINT('',#1484);
#495=VERTEX_POINT('',#1486);
#496=VERTEX_POINT('',#1489);
#497=VERTEX_POINT('',#1490);
#498=VERTEX_POINT('',#1492);
#499=VERTEX_POINT('',#1494);
#500=VERTEX_POINT('',#1497);
#501=VERTEX_POINT('',#1498);
#502=VERTEX_POINT('',#1500);
#503=VERTEX_POINT('',#1502);
#504=VERTEX_POINT('',#1505);
#505=VERTEX_POINT('',#1506);
#506=VERTEX_POINT('',#1508);
#507=VERTEX_POINT('',#1510);
#508=VERTEX_POINT('',#1514);
#509=VERTEX_POINT('',#1515);
#510=VERTEX_POINT('',#1517);
#511=VERTEX_POINT('',#1519);
#512=VERTEX_POINT('',#1522);
#513=VERTEX_POINT('',#1523);
#514=VERTEX_POINT('',#1525);
#515=VERTEX_POINT('',#1527);
#516=VERTEX_POINT('',#1530);
#517=VERTEX_POINT('',#1531);
#518=VERTEX_POINT('',#1533);
#519=VERTEX_POINT('',#1535);
#520=VERTEX_POINT('',#1538);
#521=VERTEX_POINT('',#1539);
#522=VERTEX_POINT('',#1541);
#523=VERTEX_POINT('',#1543);
#524=VERTEX_POINT('',#1546);
#525=VERTEX_POINT('',#1547);
#526=VERTEX_POINT('',#1549);
#527=VERTEX_POINT('',#1551);
#528=VERTEX_POINT('',#1554);
#529=VERTEX_POINT('',#1555);
#530=VERTEX_POINT('',#1557);
#531=VERTEX_POINT('',#1559);
#532=VERTEX_POINT('',#1562);
#533=VERTEX_POINT('',#1563);
#534=VERTEX_POINT('',#1565);
#535=VERTEX_POINT('',#1567);
#536=VERTEX_POINT('',#1570);
#537=VERTEX_POINT('',#1571);
#538=VERTEX_POINT('',#1573);
#539=VERTEX_POINT('',#1575);
#540=VERTEX_POINT('',#1578);
#541=VERTEX_POINT('',#1579);
#542=VERTEX_POINT('',#1581);
#543=VERTEX_POINT('',#1583);
#544=VERTEX_POINT('',#1587);
#545=VERTEX_POINT('',#1589);
#546=VERTEX_POINT('',#1593);
#547=VERTEX_POINT('',#1594);
#548=VERTEX_POINT('',#1599);
#549=VERTEX_POINT('',#1600);
#550=VERTEX_POINT('',#1602);
#551=VERTEX_POINT('',#1604);
#552=VERTEX_POINT('',#1607);
#553=VERTEX_POINT('',#1608);
#554=VERTEX_POINT('',#1610);
#555=VERTEX_POINT('',#1612);
#556=VERTEX_POINT('',#1624);
#557=VERTEX_POINT('',#1625);
#558=VERTEX_POINT('',#1627);
#559=VERTEX_POINT('',#1629);
#560=VERTEX_POINT('',#1633);
#561=VERTEX_POINT('',#1635);
#562=VERTEX_POINT('',#1639);
#563=VERTEX_POINT('',#1641);
#564=VERTEX_POINT('',#1664);
#565=VERTEX_POINT('',#1667);
#566=VERTEX_POINT('',#1671);
#567=VERTEX_POINT('',#1674);
#568=LINE('',#1440,#708);
#569=LINE('',#1443,#709);
#570=LINE('',#1445,#710);
#571=LINE('',#1447,#711);
#572=LINE('',#1448,#712);
#573=LINE('',#1451,#713);
#574=LINE('',#1453,#714);
#575=LINE('',#1455,#715);
#576=LINE('',#1456,#716);
#577=LINE('',#1459,#717);
#578=LINE('',#1461,#718);
#579=LINE('',#1463,#719);
#580=LINE('',#1464,#720);
#581=LINE('',#1467,#721);
#582=LINE('',#1469,#722);
#583=LINE('',#1471,#723);
#584=LINE('',#1472,#724);
#585=LINE('',#1475,#725);
#586=LINE('',#1477,#726);
#587=LINE('',#1479,#727);
#588=LINE('',#1480,#728);
#589=LINE('',#1483,#729);
#590=LINE('',#1485,#730);
#591=LINE('',#1487,#731);
#592=LINE('',#1488,#732);
#593=LINE('',#1491,#733);
#594=LINE('',#1493,#734);
#595=LINE('',#1495,#735);
#596=LINE('',#1496,#736);
#597=LINE('',#1499,#737);
#598=LINE('',#1501,#738);
#599=LINE('',#1503,#739);
#600=LINE('',#1504,#740);
#601=LINE('',#1507,#741);
#602=LINE('',#1509,#742);
#603=LINE('',#1511,#743);
#604=LINE('',#1513,#744);
#605=LINE('',#1516,#745);
#606=LINE('',#1518,#746);
#607=LINE('',#1520,#747);
#608=LINE('',#1521,#748);
#609=LINE('',#1524,#749);
#610=LINE('',#1526,#750);
#611=LINE('',#1528,#751);
#612=LINE('',#1529,#752);
#613=LINE('',#1532,#753);
#614=LINE('',#1534,#754);
#615=LINE('',#1536,#755);
#616=LINE('',#1537,#756);
#617=LINE('',#1540,#757);
#618=LINE('',#1542,#758);
#619=LINE('',#1544,#759);
#620=LINE('',#1545,#760);
#621=LINE('',#1548,#761);
#622=LINE('',#1550,#762);
#623=LINE('',#1552,#763);
#624=LINE('',#1553,#764);
#625=LINE('',#1556,#765);
#626=LINE('',#1558,#766);
#627=LINE('',#1560,#767);
#628=LINE('',#1561,#768);
#629=LINE('',#1564,#769);
#630=LINE('',#1566,#770);
#631=LINE('',#1568,#771);
#632=LINE('',#1569,#772);
#633=LINE('',#1572,#773);
#634=LINE('',#1574,#774);
#635=LINE('',#1576,#775);
#636=LINE('',#1577,#776);
#637=LINE('',#1580,#777);
#638=LINE('',#1582,#778);
#639=LINE('',#1584,#779);
#640=LINE('',#1586,#780);
#641=LINE('',#1588,#781);
#642=LINE('',#1590,#782);
#643=LINE('',#1592,#783);
#644=LINE('',#1595,#784);
#645=LINE('',#1596,#785);
#646=LINE('',#1598,#786);
#647=LINE('',#1601,#787);
#648=LINE('',#1603,#788);
#649=LINE('',#1605,#789);
#650=LINE('',#1606,#790);
#651=LINE('',#1609,#791);
#652=LINE('',#1611,#792);
#653=LINE('',#1613,#793);
#654=LINE('',#1615,#794);
#655=LINE('',#1616,#795);
#656=LINE('',#1618,#796);
#657=LINE('',#1620,#797);
#658=LINE('',#1623,#798);
#659=LINE('',#1626,#799);
#660=LINE('',#1628,#800);
#661=LINE('',#1630,#801);
#662=LINE('',#1632,#802);
#663=LINE('',#1634,#803);
#664=LINE('',#1636,#804);
#665=LINE('',#1638,#805);
#666=LINE('',#1640,#806);
#667=LINE('',#1642,#807);
#668=LINE('',#1644,#808);
#669=LINE('',#1645,#809);
#670=LINE('',#1663,#810);
#671=LINE('',#1665,#811);
#672=LINE('',#1666,#812);
#673=LINE('',#1668,#813);
#674=LINE('',#1670,#814);
#675=LINE('',#1672,#815);
#676=LINE('',#1673,#816);
#677=LINE('',#1675,#817);
#678=LINE('',#1677,#818);
#679=LINE('',#1680,#819);
#680=LINE('',#1683,#820);
#681=LINE('',#1684,#821);
#682=LINE('',#1686,#822);
#683=LINE('',#1688,#823);
#684=LINE('',#1691,#824);
#685=LINE('',#1692,#825);
#686=LINE('',#1694,#826);
#687=LINE('',#1696,#827);
#688=LINE('',#1699,#828);
#689=LINE('',#1700,#829);
#690=LINE('',#1702,#830);
#691=LINE('',#1704,#831);
#692=LINE('',#1707,#832);
#693=LINE('',#1708,#833);
#694=LINE('',#1710,#834);
#695=LINE('',#1712,#835);
#696=LINE('',#1715,#836);
#697=LINE('',#1716,#837);
#698=LINE('',#1718,#838);
#699=LINE('',#1720,#839);
#700=LINE('',#1723,#840);
#701=LINE('',#1724,#841);
#702=LINE('',#1726,#842);
#703=LINE('',#1728,#843);
#704=LINE('',#1731,#844);
#705=LINE('',#1732,#845);
#706=LINE('',#1734,#846);
#707=LINE('',#1736,#847);
#708=VECTOR('',#1174,1.);
#709=VECTOR('',#1175,1.);
#710=VECTOR('',#1176,1.);
#711=VECTOR('',#1177,1.);
#712=VECTOR('',#1178,1.);
#713=VECTOR('',#1179,1.);
#714=VECTOR('',#1180,1.);
#715=VECTOR('',#1181,1.);
#716=VECTOR('',#1182,1.);
#717=VECTOR('',#1183,1.);
#718=VECTOR('',#1184,1.);
#719=VECTOR('',#1185,1.);
#720=VECTOR('',#1186,1.);
#721=VECTOR('',#1187,1.);
#722=VECTOR('',#1188,1.);
#723=VECTOR('',#1189,1.);
#724=VECTOR('',#1190,1.);
#725=VECTOR('',#1191,1.);
#726=VECTOR('',#1192,1.);
#727=VECTOR('',#1193,1.);
#728=VECTOR('',#1194,1.);
#729=VECTOR('',#1195,1.);
#730=VECTOR('',#1196,1.);
#731=VECTOR('',#1197,1.);
#732=VECTOR('',#1198,1.);
#733=VECTOR('',#1199,1.);
#734=VECTOR('',#1200,1.);
#735=VECTOR('',#1201,1.);
#736=VECTOR('',#1202,1.);
#737=VECTOR('',#1203,1.);
#738=VECTOR('',#1204,1.);
#739=VECTOR('',#1205,1.);
#740=VECTOR('',#1206,1.);
#741=VECTOR('',#1207,1.);
#742=VECTOR('',#1208,1.);
#743=VECTOR('',#1209,1.);
#744=VECTOR('',#1212,1.);
#745=VECTOR('',#1213,1.);
#746=VECTOR('',#1214,1.);
#747=VECTOR('',#1215,1.);
#748=VECTOR('',#1216,1.);
#749=VECTOR('',#1217,1.);
#750=VECTOR('',#1218,1.);
#751=VECTOR('',#1219,1.);
#752=VECTOR('',#1220,1.);
#753=VECTOR('',#1221,1.);
#754=VECTOR('',#1222,1.);
#755=VECTOR('',#1223,1.);
#756=VECTOR('',#1224,1.);
#757=VECTOR('',#1225,1.);
#758=VECTOR('',#1226,1.);
#759=VECTOR('',#1227,1.);
#760=VECTOR('',#1228,1.);
#761=VECTOR('',#1229,1.);
#762=VECTOR('',#1230,1.);
#763=VECTOR('',#1231,1.);
#764=VECTOR('',#1232,1.);
#765=VECTOR('',#1233,1.);
#766=VECTOR('',#1234,1.);
#767=VECTOR('',#1235,1.);
#768=VECTOR('',#1236,1.);
#769=VECTOR('',#1237,1.);
#770=VECTOR('',#1238,1.);
#771=VECTOR('',#1239,1.);
#772=VECTOR('',#1240,1.);
#773=VECTOR('',#1241,1.);
#774=VECTOR('',#1242,1.);
#775=VECTOR('',#1243,1.);
#776=VECTOR('',#1244,1.);
#777=VECTOR('',#1245,1.);
#778=VECTOR('',#1246,1.);
#779=VECTOR('',#1247,1.);
#780=VECTOR('',#1250,1.);
#781=VECTOR('',#1251,1.);
#782=VECTOR('',#1252,1.);
#783=VECTOR('',#1255,1.);
#784=VECTOR('',#1256,1.);
#785=VECTOR('',#1257,1.);
#786=VECTOR('',#1260,1.);
#787=VECTOR('',#1261,1.);
#788=VECTOR('',#1262,1.);
#789=VECTOR('',#1263,1.);
#790=VECTOR('',#1264,1.);
#791=VECTOR('',#1265,1.);
#792=VECTOR('',#1266,1.);
#793=VECTOR('',#1267,1.);
#794=VECTOR('',#1270,1.);
#795=VECTOR('',#1271,1.);
#796=VECTOR('',#1274,1.);
#797=VECTOR('',#1277,1.);
#798=VECTOR('',#1282,1.);
#799=VECTOR('',#1283,1.);
#800=VECTOR('',#1284,1.);
#801=VECTOR('',#1285,1.);
#802=VECTOR('',#1288,1.);
#803=VECTOR('',#1289,1.);
#804=VECTOR('',#1290,1.);
#805=VECTOR('',#1293,1.);
#806=VECTOR('',#1294,1.);
#807=VECTOR('',#1295,1.);
#808=VECTOR('',#1298,1.);
#809=VECTOR('',#1299,1.);
#810=VECTOR('',#1334,1.);
#811=VECTOR('',#1335,1.);
#812=VECTOR('',#1336,1.);
#813=VECTOR('',#1337,1.);
#814=VECTOR('',#1340,1.);
#815=VECTOR('',#1341,1.);
#816=VECTOR('',#1342,1.);
#817=VECTOR('',#1343,1.);
#818=VECTOR('',#1346,1.);
#819=VECTOR('',#1351,1.);
#820=VECTOR('',#1356,1.);
#821=VECTOR('',#1357,1.);
#822=VECTOR('',#1360,1.);
#823=VECTOR('',#1363,1.);
#824=VECTOR('',#1368,1.);
#825=VECTOR('',#1369,1.);
#826=VECTOR('',#1372,1.);
#827=VECTOR('',#1375,1.);
#828=VECTOR('',#1380,1.);
#829=VECTOR('',#1381,1.);
#830=VECTOR('',#1384,1.);
#831=VECTOR('',#1387,1.);
#832=VECTOR('',#1392,1.);
#833=VECTOR('',#1393,1.);
#834=VECTOR('',#1396,1.);
#835=VECTOR('',#1399,1.);
#836=VECTOR('',#1404,1.);
#837=VECTOR('',#1405,1.);
#838=VECTOR('',#1408,1.);
#839=VECTOR('',#1411,1.);
#840=VECTOR('',#1416,1.);
#841=VECTOR('',#1417,1.);
#842=VECTOR('',#1420,1.);
#843=VECTOR('',#1423,1.);
#844=VECTOR('',#1428,1.);
#845=VECTOR('',#1429,1.);
#846=VECTOR('',#1432,1.);
#847=VECTOR('',#1435,1.);
#848=EDGE_LOOP('',(#28,#29,#30,#31));
#849=EDGE_LOOP('',(#32,#33,#34,#35));
#850=EDGE_LOOP('',(#36,#37,#38,#39));
#851=EDGE_LOOP('',(#40,#41,#42,#43));
#852=EDGE_LOOP('',(#44,#45,#46,#47));
#853=EDGE_LOOP('',(#48,#49,#50,#51));
#854=EDGE_LOOP('',(#52,#53,#54,#55));
#855=EDGE_LOOP('',(#56,#57,#58,#59));
#856=EDGE_LOOP('',(#60,#61,#62,#63));
#857=EDGE_LOOP('',(#64,#65,#66,#67));
#858=EDGE_LOOP('',(#68,#69,#70,#71));
#859=EDGE_LOOP('',(#72,#73,#74,#75));
#860=EDGE_LOOP('',(#76,#77,#78,#79));
#861=EDGE_LOOP('',(#80,#81,#82,#83));
#862=EDGE_LOOP('',(#84,#85,#86,#87));
#863=EDGE_LOOP('',(#88,#89,#90,#91));
#864=EDGE_LOOP('',(#92,#93,#94,#95));
#865=EDGE_LOOP('',(#96,#97,#98,#99));
#866=EDGE_LOOP('',(#100,#101,#102,#103));
#867=EDGE_LOOP('',(#104,#105,#106,#107));
#868=EDGE_LOOP('',(#108,#109,#110,#111));
#869=EDGE_LOOP('',(#112,#113,#114,#115));
#870=EDGE_LOOP('',(#116,#117,#118,#119));
#871=EDGE_LOOP('',(#120,#121,#122,#123));
#872=EDGE_LOOP('',(#124,#125,#126,#127));
#873=EDGE_LOOP('',(#128,#129,#130,#131));
#874=EDGE_LOOP('',(#132,#133,#134,#135));
#875=EDGE_LOOP('',(#136,#137,#138,#139));
#876=EDGE_LOOP('',(#140,#141,#142,#143));
#877=EDGE_LOOP('',(#144,#145,#146,#147));
#878=EDGE_LOOP('',(#148,#149,#150,#151));
#879=EDGE_LOOP('',(#152,#153,#154,#155));
#880=EDGE_LOOP('',(#156,#157,#158,#159));
#881=EDGE_LOOP('',(#160,#161,#162,#163));
#882=EDGE_LOOP('',(#164,#165,#166,#167));
#883=EDGE_LOOP('',(#168,#169,#170,#171));
#884=EDGE_LOOP('',(#172,#173,#174,#175));
#885=EDGE_LOOP('',(#176,#177,#178,#179));
#886=EDGE_LOOP('',(#180,#181,#182,#183,#184,#185,#186,#187));
#887=EDGE_LOOP('',(#188,#189,#190,#191,#192,#193,#194,#195));
#888=EDGE_LOOP('',(#196,#197,#198,#199));
#889=EDGE_LOOP('',(#200,#201,#202,#203));
#890=EDGE_LOOP('',(#204,#205,#206,#207));
#891=EDGE_LOOP('',(#208,#209,#210,#211));
#892=EDGE_LOOP('',(#212,#213,#214,#215));
#893=EDGE_LOOP('',(#216,#217,#218,#219));
#894=EDGE_LOOP('',(#220,#221,#222,#223));
#895=EDGE_LOOP('',(#224,#225,#226,#227));
#896=EDGE_LOOP('',(#228,#229,#230,#231));
#897=EDGE_LOOP('',(#232,#233,#234,#235));
#898=EDGE_LOOP('',(#236,#237,#238,#239));
#899=EDGE_LOOP('',(#240,#241,#242,#243));
#900=EDGE_LOOP('',(#244,#245,#246,#247));
#901=EDGE_LOOP('',(#248,#249,#250,#251));
#902=EDGE_LOOP('',(#252,#253,#254,#255));
#903=EDGE_LOOP('',(#256,#257,#258,#259));
#904=EDGE_LOOP('',(#260,#261,#262,#263));
#905=EDGE_LOOP('',(#264,#265,#266,#267));
#906=EDGE_LOOP('',(#268,#269,#270,#271));
#907=EDGE_LOOP('',(#272,#273,#274,#275));
#908=EDGE_LOOP('',(#276,#277,#278,#279));
#909=EDGE_LOOP('',(#280,#281,#282,#283));
#910=EDGE_LOOP('',(#284,#285,#286,#287));
#911=EDGE_LOOP('',(#288,#289,#290,#291));
#912=EDGE_LOOP('',(#292,#293,#294,#295));
#913=EDGE_LOOP('',(#296,#297,#298,#299));
#914=EDGE_LOOP('',(#300,#301,#302,#303));
#915=EDGE_LOOP('',(#304,#305,#306,#307));
#916=EDGE_LOOP('',(#308,#309,#310,#311));
#917=EDGE_LOOP('',(#312,#313,#314,#315));
#918=EDGE_LOOP('',(#316,#317,#318,#319));
#919=EDGE_LOOP('',(#320,#321,#322,#323));
#920=FACE_BOUND('',#848,.T.);
#921=FACE_BOUND('',#849,.T.);
#922=FACE_BOUND('',#850,.T.);
#923=FACE_BOUND('',#851,.T.);
#924=FACE_BOUND('',#852,.T.);
#925=FACE_BOUND('',#853,.T.);
#926=FACE_BOUND('',#854,.T.);
#927=FACE_BOUND('',#855,.T.);
#928=FACE_BOUND('',#856,.T.);
#929=FACE_BOUND('',#857,.T.);
#930=FACE_BOUND('',#858,.T.);
#931=FACE_BOUND('',#859,.T.);
#932=FACE_BOUND('',#860,.T.);
#933=FACE_BOUND('',#861,.T.);
#934=FACE_BOUND('',#862,.T.);
#935=FACE_BOUND('',#863,.T.);
#936=FACE_BOUND('',#864,.T.);
#937=FACE_BOUND('',#865,.T.);
#938=FACE_BOUND('',#866,.T.);
#939=FACE_BOUND('',#867,.T.);
#940=FACE_BOUND('',#868,.T.);
#941=FACE_BOUND('',#869,.T.);
#942=FACE_BOUND('',#870,.T.);
#943=FACE_BOUND('',#871,.T.);
#944=FACE_BOUND('',#872,.T.);
#945=FACE_BOUND('',#873,.T.);
#946=FACE_BOUND('',#874,.T.);
#947=FACE_BOUND('',#875,.T.);
#948=FACE_BOUND('',#876,.T.);
#949=FACE_BOUND('',#877,.T.);
#950=FACE_BOUND('',#878,.T.);
#951=FACE_BOUND('',#879,.T.);
#952=FACE_BOUND('',#880,.T.);
#953=FACE_BOUND('',#881,.T.);
#954=FACE_BOUND('',#882,.T.);
#955=FACE_BOUND('',#883,.T.);
#956=FACE_BOUND('',#884,.T.);
#957=FACE_BOUND('',#885,.T.);
#958=FACE_BOUND('',#886,.T.);
#959=FACE_BOUND('',#887,.T.);
#960=FACE_BOUND('',#888,.T.);
#961=FACE_BOUND('',#889,.T.);
#962=FACE_BOUND('',#890,.T.);
#963=FACE_BOUND('',#891,.T.);
#964=FACE_BOUND('',#892,.T.);
#965=FACE_BOUND('',#893,.T.);
#966=FACE_BOUND('',#894,.T.);
#967=FACE_BOUND('',#895,.T.);
#968=FACE_BOUND('',#896,.T.);
#969=FACE_BOUND('',#897,.T.);
#970=FACE_BOUND('',#898,.T.);
#971=FACE_BOUND('',#899,.T.);
#972=FACE_BOUND('',#900,.T.);
#973=FACE_BOUND('',#901,.T.);
#974=FACE_BOUND('',#902,.T.);
#975=FACE_BOUND('',#903,.T.);
#976=FACE_BOUND('',#904,.T.);
#977=FACE_BOUND('',#905,.T.);
#978=FACE_BOUND('',#906,.T.);
#979=FACE_BOUND('',#907,.T.);
#980=FACE_BOUND('',#908,.T.);
#981=FACE_BOUND('',#909,.T.);
#982=FACE_BOUND('',#910,.T.);
#983=FACE_BOUND('',#911,.T.);
#984=FACE_BOUND('',#912,.T.);
#985=FACE_BOUND('',#913,.T.);
#986=FACE_BOUND('',#914,.T.);
#987=FACE_BOUND('',#915,.T.);
#988=FACE_BOUND('',#916,.T.);
#989=FACE_BOUND('',#917,.T.);
#990=FACE_BOUND('',#918,.T.);
#991=FACE_BOUND('',#919,.T.);
#992=PLANE('',#1107);
#993=PLANE('',#1108);
#994=PLANE('',#1109);
#995=PLANE('',#1110);
#996=PLANE('',#1111);
#997=PLANE('',#1112);
#998=PLANE('',#1113);
#999=PLANE('',#1114);
#1000=PLANE('',#1115);
#1001=PLANE('',#1116);
#1002=PLANE('',#1117);
#1003=PLANE('',#1118);
#1004=PLANE('',#1119);
#1005=PLANE('',#1136);
#1006=PLANE('',#1137);
#1007=PLANE('',#1138);
#1008=PLANE('',#1139);
#1009=PLANE('',#1140);
#1010=PLANE('',#1141);
#1011=PLANE('',#1142);
#1012=PLANE('',#1143);
#1013=PLANE('',#1144);
#1014=PLANE('',#1145);
#1015=PLANE('',#1146);
#1016=PLANE('',#1147);
#1017=PLANE('',#1148);
#1018=PLANE('',#1149);
#1019=PLANE('',#1150);
#1020=PLANE('',#1151);
#1021=PLANE('',#1152);
#1022=PLANE('',#1153);
#1023=PLANE('',#1154);
#1024=PLANE('',#1155);
#1025=PLANE('',#1156);
#1026=PLANE('',#1157);
#1027=PLANE('',#1158);
#1028=PLANE('',#1159);
#1029=PLANE('',#1160);
#1030=PLANE('',#1161);
#1031=PLANE('',#1162);
#1032=PLANE('',#1163);
#1033=PLANE('',#1164);
#1034=PLANE('',#1165);
#1035=PLANE('',#1166);
#1036=PLANE('',#1167);
#1037=PLANE('',#1168);
#1038=PLANE('',#1169);
#1039=ADVANCED_FACE('',(#920,#921,#922,#923,#924,#925,#926,#927,#928),#992,
 .F.);
#1040=ADVANCED_FACE('',(#929,#930,#931,#932,#933,#934,#935,#936,#937),#993,
 .T.);
#1041=ADVANCED_FACE('',(#938),#994,.T.);
#1042=ADVANCED_FACE('',(#939),#995,.F.);
#1043=ADVANCED_FACE('',(#940,#941),#996,.T.);
#1044=ADVANCED_FACE('',(#942),#997,.T.);
#1045=ADVANCED_FACE('',(#943),#998,.T.);
#1046=ADVANCED_FACE('',(#944),#999,.F.);
#1047=ADVANCED_FACE('',(#945),#1000,.F.);
#1048=ADVANCED_FACE('',(#946),#1001,.T.);
#1049=ADVANCED_FACE('',(#947),#1002,.F.);
#1050=ADVANCED_FACE('',(#948),#1003,.F.);
#1051=ADVANCED_FACE('',(#949),#1004,.T.);
#1052=ADVANCED_FACE('',(#950),#20,.F.);
#1053=ADVANCED_FACE('',(#951),#21,.F.);
#1054=ADVANCED_FACE('',(#952),#22,.F.);
#1055=ADVANCED_FACE('',(#953),#23,.F.);
#1056=ADVANCED_FACE('',(#954),#24,.T.);
#1057=ADVANCED_FACE('',(#955),#25,.T.);
#1058=ADVANCED_FACE('',(#956),#26,.T.);
#1059=ADVANCED_FACE('',(#957),#27,.T.);
#1060=ADVANCED_FACE('',(#958),#1005,.F.);
#1061=ADVANCED_FACE('',(#959),#1006,.T.);
#1062=ADVANCED_FACE('',(#960),#1007,.T.);
#1063=ADVANCED_FACE('',(#961),#1008,.F.);
#1064=ADVANCED_FACE('',(#962),#1009,.T.);
#1065=ADVANCED_FACE('',(#963),#1010,.T.);
#1066=ADVANCED_FACE('',(#964),#1011,.T.);
#1067=ADVANCED_FACE('',(#965),#1012,.F.);
#1068=ADVANCED_FACE('',(#966),#1013,.F.);
#1069=ADVANCED_FACE('',(#967),#1014,.T.);
#1070=ADVANCED_FACE('',(#968),#1015,.T.);
#1071=ADVANCED_FACE('',(#969),#1016,.F.);
#1072=ADVANCED_FACE('',(#970),#1017,.F.);
#1073=ADVANCED_FACE('',(#971),#1018,.T.);
#1074=ADVANCED_FACE('',(#972),#1019,.T.);
#1075=ADVANCED_FACE('',(#973),#1020,.F.);
#1076=ADVANCED_FACE('',(#974),#1021,.F.);
#1077=ADVANCED_FACE('',(#975),#1022,.T.);
#1078=ADVANCED_FACE('',(#976),#1023,.T.);
#1079=ADVANCED_FACE('',(#977),#1024,.F.);
#1080=ADVANCED_FACE('',(#978),#1025,.F.);
#1081=ADVANCED_FACE('',(#979),#1026,.T.);
#1082=ADVANCED_FACE('',(#980),#1027,.T.);
#1083=ADVANCED_FACE('',(#981),#1028,.F.);
#1084=ADVANCED_FACE('',(#982),#1029,.F.);
#1085=ADVANCED_FACE('',(#983),#1030,.T.);
#1086=ADVANCED_FACE('',(#984),#1031,.T.);
#1087=ADVANCED_FACE('',(#985),#1032,.F.);
#1088=ADVANCED_FACE('',(#986),#1033,.F.);
#1089=ADVANCED_FACE('',(#987),#1034,.T.);
#1090=ADVANCED_FACE('',(#988),#1035,.T.);
#1091=ADVANCED_FACE('',(#989),#1036,.F.);
#1092=ADVANCED_FACE('',(#990),#1037,.F.);
#1093=ADVANCED_FACE('',(#991),#1038,.T.);
#1094=CLOSED_SHELL('',(#1039,#1040,#1041,#1042,#1043,#1044,#1045,#1046,
#1047,#1048,#1049,#1050,#1051,#1052,#1053,#1054,#1055,#1056,#1057,#1058,
#1059,#1060,#1061,#1062,#1063,#1064,#1065,#1066,#1067,#1068,#1069,#1070,
#1071,#1072,#1073,#1074,#1075,#1076,#1077,#1078,#1079,#1080,#1081,#1082,
#1083,#1084,#1085,#1086,#1087,#1088,#1089,#1090,#1091,#1092,#1093));
#1095=STYLED_ITEM('',(#1096),#1103);
#1096=PRESENTATION_STYLE_ASSIGNMENT((#1097));
#1097=SURFACE_STYLE_USAGE(.BOTH.,#1098);
#1098=SURFACE_SIDE_STYLE('',(#1099));
#1099=SURFACE_STYLE_FILL_AREA(#1100);
#1100=FILL_AREA_STYLE('',(#1101));
#1101=FILL_AREA_STYLE_COLOUR('',#1102);
#1102=COLOUR_RGB('',0.647058823529412,0.647058823529412,0.647058823529412);
#1103=MANIFOLD_SOLID_BREP('Part 2',#1094);
#1104=SHAPE_DEFINITION_REPRESENTATION(#1744,#1105);
#1105=SHAPE_REPRESENTATION('Part 2',(#1106),#1739);
#1106=AXIS2_PLACEMENT_3D('',#1438,#1170,#1171);
#1107=AXIS2_PLACEMENT_3D('',#1439,#1172,#1173);
#1108=AXIS2_PLACEMENT_3D('',#1512,#1210,#1211);
#1109=AXIS2_PLACEMENT_3D('',#1585,#1248,#1249);
#1110=AXIS2_PLACEMENT_3D('',#1591,#1253,#1254);
#1111=AXIS2_PLACEMENT_3D('',#1597,#1258,#1259);
#1112=AXIS2_PLACEMENT_3D('',#1614,#1268,#1269);
#1113=AXIS2_PLACEMENT_3D('',#1617,#1272,#1273);
#1114=AXIS2_PLACEMENT_3D('',#1619,#1275,#1276);
#1115=AXIS2_PLACEMENT_3D('',#1621,#1278,#1279);
#1116=AXIS2_PLACEMENT_3D('',#1622,#1280,#1281);
#1117=AXIS2_PLACEMENT_3D('',#1631,#1286,#1287);
#1118=AXIS2_PLACEMENT_3D('',#1637,#1291,#1292);
#1119=AXIS2_PLACEMENT_3D('',#1643,#1296,#1297);
#1120=AXIS2_PLACEMENT_3D('',#1646,#1300,#1301);
#1121=AXIS2_PLACEMENT_3D('',#1647,#1302,#1303);
#1122=AXIS2_PLACEMENT_3D('',#1648,#1304,#1305);
#1123=AXIS2_PLACEMENT_3D('',#1649,#1306,#1307);
#1124=AXIS2_PLACEMENT_3D('',#1650,#1308,#1309);
#1125=AXIS2_PLACEMENT_3D('',#1651,#1310,#1311);
#1126=AXIS2_PLACEMENT_3D('',#1652,#1312,#1313);
#1127=AXIS2_PLACEMENT_3D('',#1653,#1314,#1315);
#1128=AXIS2_PLACEMENT_3D('',#1654,#1316,#1317);
#1129=AXIS2_PLACEMENT_3D('',#1655,#1318,#1319);
#1130=AXIS2_PLACEMENT_3D('',#1656,#1320,#1321);
#1131=AXIS2_PLACEMENT_3D('',#1657,#1322,#1323);
#1132=AXIS2_PLACEMENT_3D('',#1658,#1324,#1325);
#1133=AXIS2_PLACEMENT_3D('',#1659,#1326,#1327);
#1134=AXIS2_PLACEMENT_3D('',#1660,#1328,#1329);
#1135=AXIS2_PLACEMENT_3D('',#1661,#1330,#1331);
#1136=AXIS2_PLACEMENT_3D('',#1662,#1332,#1333);
#1137=AXIS2_PLACEMENT_3D('',#1669,#1338,#1339);
#1138=AXIS2_PLACEMENT_3D('',#1676,#1344,#1345);
#1139=AXIS2_PLACEMENT_3D('',#1678,#1347,#1348);
#1140=AXIS2_PLACEMENT_3D('',#1679,#1349,#1350);
#1141=AXIS2_PLACEMENT_3D('',#1681,#1352,#1353);
#1142=AXIS2_PLACEMENT_3D('',#1682,#1354,#1355);
#1143=AXIS2_PLACEMENT_3D('',#1685,#1358,#1359);
#1144=AXIS2_PLACEMENT_3D('',#1687,#1361,#1362);
#1145=AXIS2_PLACEMENT_3D('',#1689,#1364,#1365);
#1146=AXIS2_PLACEMENT_3D('',#1690,#1366,#1367);
#1147=AXIS2_PLACEMENT_3D('',#1693,#1370,#1371);
#1148=AXIS2_PLACEMENT_3D('',#1695,#1373,#1374);
#1149=AXIS2_PLACEMENT_3D('',#1697,#1376,#1377);
#1150=AXIS2_PLACEMENT_3D('',#1698,#1378,#1379);
#1151=AXIS2_PLACEMENT_3D('',#1701,#1382,#1383);
#1152=AXIS2_PLACEMENT_3D('',#1703,#1385,#1386);
#1153=AXIS2_PLACEMENT_3D('',#1705,#1388,#1389);
#1154=AXIS2_PLACEMENT_3D('',#1706,#1390,#1391);
#1155=AXIS2_PLACEMENT_3D('',#1709,#1394,#1395);
#1156=AXIS2_PLACEMENT_3D('',#1711,#1397,#1398);
#1157=AXIS2_PLACEMENT_3D('',#1713,#1400,#1401);
#1158=AXIS2_PLACEMENT_3D('',#1714,#1402,#1403);
#1159=AXIS2_PLACEMENT_3D('',#1717,#1406,#1407);
#1160=AXIS2_PLACEMENT_3D('',#1719,#1409,#1410);
#1161=AXIS2_PLACEMENT_3D('',#1721,#1412,#1413);
#1162=AXIS2_PLACEMENT_3D('',#1722,#1414,#1415);
#1163=AXIS2_PLACEMENT_3D('',#1725,#1418,#1419);
#1164=AXIS2_PLACEMENT_3D('',#1727,#1421,#1422);
#1165=AXIS2_PLACEMENT_3D('',#1729,#1424,#1425);
#1166=AXIS2_PLACEMENT_3D('',#1730,#1426,#1427);
#1167=AXIS2_PLACEMENT_3D('',#1733,#1430,#1431);
#1168=AXIS2_PLACEMENT_3D('',#1735,#1433,#1434);
#1169=AXIS2_PLACEMENT_3D('',#1737,#1436,#1437);
#1170=DIRECTION('',(0.,0.,1.));
#1171=DIRECTION('',(1.,0.,0.));
#1172=DIRECTION('',(0.,0.,1.));
#1173=DIRECTION('',(1.,0.,0.));
#1174=DIRECTION('',(0.,-1.,0.));
#1175=DIRECTION('',(1.,-1.44560289664734E-16,0.));
#1176=DIRECTION('',(0.,-1.,0.));
#1177=DIRECTION('',(1.,-1.44560289664734E-16,0.));
#1178=DIRECTION('',(0.,-1.,0.));
#1179=DIRECTION('',(1.,-1.44560289664734E-16,0.));
#1180=DIRECTION('',(0.,-1.,0.));
#1181=DIRECTION('',(1.,-1.44560289664734E-16,0.));
#1182=DIRECTION('',(0.,-1.,0.));
#1183=DIRECTION('',(1.,0.,0.));
#1184=DIRECTION('',(0.,-1.,0.));
#1185=DIRECTION('',(1.,0.,0.));
#1186=DIRECTION('',(0.,-1.,0.));
#1187=DIRECTION('',(1.,-2.31296463463574E-16,0.));
#1188=DIRECTION('',(-1.23908819712629E-16,-1.,0.));
#1189=DIRECTION('',(1.,-2.31296463463574E-16,0.));
#1190=DIRECTION('',(-1.,-1.26161707343768E-16,0.));
#1191=DIRECTION('',(0.,1.,0.));
#1192=DIRECTION('',(-1.,-1.26161707343768E-16,0.));
#1193=DIRECTION('',(0.,1.,0.));
#1194=DIRECTION('',(0.,-1.,0.));
#1195=DIRECTION('',(1.,0.,0.));
#1196=DIRECTION('',(0.,-1.,0.));
#1197=DIRECTION('',(1.,0.,0.));
#1198=DIRECTION('',(0.,-1.,0.));
#1199=DIRECTION('',(1.,-1.44560289664734E-16,0.));
#1200=DIRECTION('',(0.,-1.,0.));
#1201=DIRECTION('',(1.,-1.44560289664734E-16,0.));
#1202=DIRECTION('',(0.,-1.,0.));
#1203=DIRECTION('',(1.,0.,0.));
#1204=DIRECTION('',(0.,-1.,0.));
#1205=DIRECTION('',(1.,-2.89120579329468E-16,0.));
#1206=DIRECTION('',(0.,-1.,0.));
#1207=DIRECTION('',(1.,-2.89120579329468E-16,0.));
#1208=DIRECTION('',(0.,-1.,0.));
#1209=DIRECTION('',(1.,0.,0.));
#1210=DIRECTION('',(0.,0.,1.));
#1211=DIRECTION('',(1.,0.,0.));
#1212=DIRECTION('',(-1.98254111540206E-16,1.,0.));
#1213=DIRECTION('',(1.,-2.31296463463574E-16,0.));
#1214=DIRECTION('',(0.,1.,0.));
#1215=DIRECTION('',(1.,-2.31296463463574E-16,0.));
#1216=DIRECTION('',(2.23835287222814E-16,-1.,0.));
#1217=DIRECTION('',(-1.,-1.36056743213867E-16,0.));
#1218=DIRECTION('',(2.23835287222814E-16,-1.,0.));
#1219=DIRECTION('',(-1.,-1.36056743213867E-16,0.));
#1220=DIRECTION('',(-1.,0.,0.));
#1221=DIRECTION('',(0.,1.,0.));
#1222=DIRECTION('',(-1.,0.,0.));
#1223=DIRECTION('',(0.,1.,0.));
#1224=DIRECTION('',(-1.,0.,0.));
#1225=DIRECTION('',(0.,1.,0.));
#1226=DIRECTION('',(-1.,0.,0.));
#1227=DIRECTION('',(0.,1.,0.));
#1228=DIRECTION('',(-1.,1.44560289664734E-16,0.));
#1229=DIRECTION('',(0.,1.,0.));
#1230=DIRECTION('',(-1.,1.44560289664734E-16,0.));
#1231=DIRECTION('',(0.,1.,0.));
#1232=DIRECTION('',(-1.,1.44560289664734E-16,0.));
#1233=DIRECTION('',(0.,1.,0.));
#1234=DIRECTION('',(-1.,1.44560289664734E-16,0.));
#1235=DIRECTION('',(0.,1.,0.));
#1236=DIRECTION('',(-1.,0.,0.));
#1237=DIRECTION('',(0.,1.,0.));
#1238=DIRECTION('',(-1.,2.89120579329468E-16,0.));
#1239=DIRECTION('',(0.,1.,0.));
#1240=DIRECTION('',(-1.,1.44560289664734E-16,0.));
#1241=DIRECTION('',(0.,1.,0.));
#1242=DIRECTION('',(-1.,1.44560289664734E-16,0.));
#1243=DIRECTION('',(0.,1.,0.));
#1244=DIRECTION('',(-1.,2.89120579329468E-16,0.));
#1245=DIRECTION('',(0.,1.,0.));
#1246=DIRECTION('',(-1.,0.,0.));
#1247=DIRECTION('',(0.,1.,0.));
#1248=DIRECTION('',(1.,0.,0.));
#1249=DIRECTION('',(0.,0.,-1.));
#1250=DIRECTION('',(0.,0.,-1.));
#1251=DIRECTION('',(0.,-1.,0.));
#1252=DIRECTION('',(0.,0.,-1.));
#1253=DIRECTION('',(1.,-1.23908819712629E-16,0.));
#1254=DIRECTION('',(1.23908819712629E-16,1.,0.));
#1255=DIRECTION('',(-1.23908819712629E-16,-1.,0.));
#1256=DIRECTION('',(0.,0.,-1.));
#1257=DIRECTION('',(0.,0.,-1.));
#1258=DIRECTION('',(0.,0.,1.));
#1259=DIRECTION('',(1.,0.,0.));
#1260=DIRECTION('',(2.23835287222814E-16,-1.,0.));
#1261=DIRECTION('',(-1.,-1.36056743213867E-16,0.));
#1262=DIRECTION('',(2.23835287222814E-16,-1.,0.));
#1263=DIRECTION('',(-1.,-1.36056743213867E-16,0.));
#1264=DIRECTION('',(-1.,-1.26161707343768E-16,0.));
#1265=DIRECTION('',(0.,1.,0.));
#1266=DIRECTION('',(-1.,-1.26161707343768E-16,0.));
#1267=DIRECTION('',(0.,1.,0.));
#1268=DIRECTION('',(1.26161707343768E-16,-1.,0.));
#1269=DIRECTION('',(1.,1.26161707343768E-16,0.));
#1270=DIRECTION('',(0.,0.,-1.));
#1271=DIRECTION('',(0.,0.,-1.));
#1272=DIRECTION('',(-1.,0.,0.));
#1273=DIRECTION('',(0.,0.,1.));
#1274=DIRECTION('',(0.,0.,-1.));
#1275=DIRECTION('',(1.26161707343768E-16,-1.,0.));
#1276=DIRECTION('',(1.,1.26161707343768E-16,0.));
#1277=DIRECTION('',(0.,0.,-1.));
#1278=DIRECTION('',(-1.,0.,0.));
#1279=DIRECTION('',(0.,0.,1.));
#1280=DIRECTION('',(1.,2.23835287222814E-16,0.));
#1281=DIRECTION('',(-2.23835287222814E-16,1.,0.));
#1282=DIRECTION('',(0.,0.,-1.));
#1283=DIRECTION('',(2.23835287222814E-16,-1.,0.));
#1284=DIRECTION('',(0.,0.,-1.));
#1285=DIRECTION('',(2.23835287222814E-16,-1.,0.));
#1286=DIRECTION('',(1.36056743213867E-16,-1.,0.));
#1287=DIRECTION('',(1.,1.36056743213867E-16,0.));
#1288=DIRECTION('',(-1.,-1.36056743213867E-16,0.));
#1289=DIRECTION('',(0.,0.,-1.));
#1290=DIRECTION('',(-1.,-1.36056743213867E-16,0.));
#1291=DIRECTION('',(1.,2.23835287222814E-16,0.));
#1292=DIRECTION('',(-2.23835287222814E-16,1.,0.));
#1293=DIRECTION('',(2.23835287222814E-16,-1.,0.));
#1294=DIRECTION('',(0.,0.,-1.));
#1295=DIRECTION('',(2.23835287222814E-16,-1.,0.));
#1296=DIRECTION('',(1.36056743213867E-16,-1.,0.));
#1297=DIRECTION('',(1.,1.36056743213867E-16,0.));
#1298=DIRECTION('',(-1.,-1.36056743213867E-16,0.));
#1299=DIRECTION('',(-1.,-1.36056743213867E-16,0.));
#1300=DIRECTION('',(1.,1.36056743213867E-16,0.));
#1301=DIRECTION('',(-1.36056743213867E-16,1.,0.));
#1302=DIRECTION('',(0.707106781186548,-0.707106781186547,0.));
#1303=DIRECTION('',(0.707106781186547,0.707106781186548,0.));
#1304=DIRECTION('',(0.707106781186547,0.707106781186548,0.));
#1305=DIRECTION('',(0.707106781186548,-0.707106781186547,0.));
#1306=DIRECTION('',(-2.23835287222814E-16,1.,0.));
#1307=DIRECTION('',(-1.,-2.23835287222814E-16,0.));
#1308=DIRECTION('',(-0.707106781186548,0.707106781186547,0.));
#1309=DIRECTION('',(0.707106781186547,0.707106781186548,0.));
#1310=DIRECTION('',(2.23835287222814E-16,-1.,0.));
#1311=DIRECTION('',(1.,2.23835287222814E-16,0.));
#1312=DIRECTION('',(-0.707106781186547,-0.707106781186548,0.));
#1313=DIRECTION('',(0.707106781186548,-0.707106781186547,0.));
#1314=DIRECTION('',(-1.,-1.36056743213867E-16,0.));
#1315=DIRECTION('',(1.36056743213867E-16,-1.,0.));
#1316=DIRECTION('',(1.,1.36056743213867E-16,0.));
#1317=DIRECTION('',(-1.36056743213867E-16,1.,0.));
#1318=DIRECTION('',(0.707106781186547,0.707106781186548,0.));
#1319=DIRECTION('',(0.707106781186548,-0.707106781186547,0.));
#1320=DIRECTION('',(0.707106781186548,-0.707106781186547,0.));
#1321=DIRECTION('',(0.707106781186547,0.707106781186548,0.));
#1322=DIRECTION('',(2.23835287222814E-16,-1.,0.));
#1323=DIRECTION('',(1.,2.23835287222814E-16,0.));
#1324=DIRECTION('',(-0.707106781186547,-0.707106781186548,0.));
#1325=DIRECTION('',(0.707106781186548,-0.707106781186547,0.));
#1326=DIRECTION('',(-2.23835287222814E-16,1.,0.));
#1327=DIRECTION('',(-1.,-2.23835287222814E-16,0.));
#1328=DIRECTION('',(-0.707106781186548,0.707106781186547,0.));
#1329=DIRECTION('',(0.707106781186547,0.707106781186548,0.));
#1330=DIRECTION('',(-1.,-1.36056743213867E-16,0.));
#1331=DIRECTION('',(1.36056743213867E-16,-1.,0.));
#1332=DIRECTION('',(2.31296463463574E-16,1.,0.));
#1333=DIRECTION('',(-1.,2.31296463463574E-16,0.));
#1334=DIRECTION('',(0.,0.,1.));
#1335=DIRECTION('',(1.,0.,0.));
#1336=DIRECTION('',(1.,0.,0.));
#1337=DIRECTION('',(0.,0.,1.));
#1338=DIRECTION('',(2.31296463463574E-16,1.,0.));
#1339=DIRECTION('',(-1.,2.31296463463574E-16,0.));
#1340=DIRECTION('',(0.,0.,1.));
#1341=DIRECTION('',(1.,0.,0.));
#1342=DIRECTION('',(1.,0.,0.));
#1343=DIRECTION('',(0.,0.,1.));
#1344=DIRECTION('',(0.,0.,1.));
#1345=DIRECTION('',(1.,0.,0.));
#1346=DIRECTION('',(-1.98254111540206E-16,1.,0.));
#1347=DIRECTION('',(1.,1.98254111540206E-16,0.));
#1348=DIRECTION('',(-1.98254111540206E-16,1.,0.));
#1349=DIRECTION('',(1.,0.,0.));
#1350=DIRECTION('',(0.,0.,-1.));
#1351=DIRECTION('',(0.,1.,0.));
#1352=DIRECTION('',(0.,0.,1.));
#1353=DIRECTION('',(1.,0.,0.));
#1354=DIRECTION('',(1.,0.,0.));
#1355=DIRECTION('',(0.,0.,-1.));
#1356=DIRECTION('',(0.,0.,-1.));
#1357=DIRECTION('',(0.,0.,-1.));
#1358=DIRECTION('',(0.,1.,0.));
#1359=DIRECTION('',(0.,0.,1.));
#1360=DIRECTION('',(0.,0.,-1.));
#1361=DIRECTION('',(1.,0.,0.));
#1362=DIRECTION('',(0.,0.,-1.));
#1363=DIRECTION('',(0.,0.,-1.));
#1364=DIRECTION('',(0.,1.,0.));
#1365=DIRECTION('',(0.,0.,1.));
#1366=DIRECTION('',(1.,0.,0.));
#1367=DIRECTION('',(0.,0.,-1.));
#1368=DIRECTION('',(0.,0.,-1.));
#1369=DIRECTION('',(0.,0.,-1.));
#1370=DIRECTION('',(0.,1.,0.));
#1371=DIRECTION('',(0.,0.,1.));
#1372=DIRECTION('',(0.,0.,-1.));
#1373=DIRECTION('',(1.,0.,0.));
#1374=DIRECTION('',(0.,0.,-1.));
#1375=DIRECTION('',(0.,0.,-1.));
#1376=DIRECTION('',(0.,1.,0.));
#1377=DIRECTION('',(0.,0.,1.));
#1378=DIRECTION('',(1.,0.,0.));
#1379=DIRECTION('',(0.,0.,-1.));
#1380=DIRECTION('',(0.,0.,-1.));
#1381=DIRECTION('',(0.,0.,-1.));
#1382=DIRECTION('',(1.44560289664734E-16,1.,0.));
#1383=DIRECTION('',(-1.,1.44560289664734E-16,0.));
#1384=DIRECTION('',(0.,0.,-1.));
#1385=DIRECTION('',(1.,0.,0.));
#1386=DIRECTION('',(0.,0.,-1.));
#1387=DIRECTION('',(0.,0.,-1.));
#1388=DIRECTION('',(1.44560289664734E-16,1.,0.));
#1389=DIRECTION('',(-1.,1.44560289664734E-16,0.));
#1390=DIRECTION('',(1.,0.,0.));
#1391=DIRECTION('',(0.,0.,-1.));
#1392=DIRECTION('',(0.,0.,-1.));
#1393=DIRECTION('',(0.,0.,-1.));
#1394=DIRECTION('',(1.44560289664734E-16,1.,0.));
#1395=DIRECTION('',(-1.,1.44560289664734E-16,0.));
#1396=DIRECTION('',(0.,0.,-1.));
#1397=DIRECTION('',(1.,0.,0.));
#1398=DIRECTION('',(0.,0.,-1.));
#1399=DIRECTION('',(0.,0.,-1.));
#1400=DIRECTION('',(1.44560289664734E-16,1.,0.));
#1401=DIRECTION('',(-1.,1.44560289664734E-16,0.));
#1402=DIRECTION('',(1.,0.,0.));
#1403=DIRECTION('',(0.,0.,-1.));
#1404=DIRECTION('',(0.,0.,-1.));
#1405=DIRECTION('',(0.,0.,-1.));
#1406=DIRECTION('',(2.89120579329468E-16,1.,0.));
#1407=DIRECTION('',(-1.,2.89120579329468E-16,0.));
#1408=DIRECTION('',(0.,0.,-1.));
#1409=DIRECTION('',(1.,0.,0.));
#1410=DIRECTION('',(0.,0.,-1.));
#1411=DIRECTION('',(0.,0.,-1.));
#1412=DIRECTION('',(0.,1.,0.));
#1413=DIRECTION('',(0.,0.,1.));
#1414=DIRECTION('',(1.,0.,0.));
#1415=DIRECTION('',(0.,0.,-1.));
#1416=DIRECTION('',(0.,0.,-1.));
#1417=DIRECTION('',(0.,0.,-1.));
#1418=DIRECTION('',(1.44560289664734E-16,1.,0.));
#1419=DIRECTION('',(-1.,1.44560289664734E-16,0.));
#1420=DIRECTION('',(0.,0.,-1.));
#1421=DIRECTION('',(1.,0.,0.));
#1422=DIRECTION('',(0.,0.,-1.));
#1423=DIRECTION('',(0.,0.,-1.));
#1424=DIRECTION('',(1.44560289664734E-16,1.,0.));
#1425=DIRECTION('',(-1.,1.44560289664734E-16,0.));
#1426=DIRECTION('',(1.,0.,0.));
#1427=DIRECTION('',(0.,0.,-1.));
#1428=DIRECTION('',(0.,0.,-1.));
#1429=DIRECTION('',(0.,0.,-1.));
#1430=DIRECTION('',(0.,1.,0.));
#1431=DIRECTION('',(0.,0.,1.));
#1432=DIRECTION('',(0.,0.,-1.));
#1433=DIRECTION('',(1.,0.,0.));
#1434=DIRECTION('',(0.,0.,-1.));
#1435=DIRECTION('',(0.,0.,-1.));
#1436=DIRECTION('',(2.89120579329468E-16,1.,0.));
#1437=DIRECTION('',(-1.,2.89120579329468E-16,0.));
#1438=CARTESIAN_POINT('',(0.,0.,0.));
#1439=CARTESIAN_POINT('',(0.,0.,0.03));
#1440=CARTESIAN_POINT('',(0.0379211956867619,0.000802933157238532,0.03));
#1441=CARTESIAN_POINT('',(0.0379211956867619,0.00380293315723853,0.03));
#1442=CARTESIAN_POINT('',(0.0379211956867619,-0.00219706684276147,0.03));
#1443=CARTESIAN_POINT('',(0.0409211956867619,-0.00219706684276147,0.03));
#1444=CARTESIAN_POINT('',(0.0439211956867619,-0.00219706684276147,0.03));
#1445=CARTESIAN_POINT('',(0.0439211956867619,0.000802933157238532,0.03));
#1446=CARTESIAN_POINT('',(0.0439211956867619,0.00380293315723853,0.03));
#1447=CARTESIAN_POINT('',(0.0409211956867619,0.00380293315723853,0.03));
#1448=CARTESIAN_POINT('',(0.0303686811569894,0.000802933157238532,0.03));
#1449=CARTESIAN_POINT('',(0.0303686811569894,0.00380293315723853,0.03));
#1450=CARTESIAN_POINT('',(0.0303686811569894,-0.00219706684276147,0.03));
#1451=CARTESIAN_POINT('',(0.0333686811569894,-0.00219706684276147,0.03));
#1452=CARTESIAN_POINT('',(0.0363686811569894,-0.00219706684276147,0.03));
#1453=CARTESIAN_POINT('',(0.0363686811569894,0.000802933157238532,0.03));
#1454=CARTESIAN_POINT('',(0.0363686811569894,0.00380293315723853,0.03));
#1455=CARTESIAN_POINT('',(0.0333686811569894,0.00380293315723853,0.03));
#1456=CARTESIAN_POINT('',(0.014,-0.0249371796309948,0.03));
#1457=CARTESIAN_POINT('',(0.014,-0.0219371796309948,0.03));
#1458=CARTESIAN_POINT('',(0.014,-0.0279371796309948,0.03));
#1459=CARTESIAN_POINT('',(0.017,-0.0279371796309948,0.03));
#1460=CARTESIAN_POINT('',(0.02,-0.0279371796309948,0.03));
#1461=CARTESIAN_POINT('',(0.02,-0.0249371796309948,0.03));
#1462=CARTESIAN_POINT('',(0.02,-0.0219371796309948,0.03));
#1463=CARTESIAN_POINT('',(0.017,-0.0219371796309948,0.03));
#1464=CARTESIAN_POINT('',(-0.041,-0.0005,0.03));
#1465=CARTESIAN_POINT('',(-0.041,0.017,0.03));
#1466=CARTESIAN_POINT('',(-0.041,-0.018,0.03));
#1467=CARTESIAN_POINT('',(-0.0185,-0.018,0.03));
#1468=CARTESIAN_POINT('',(0.004,-0.018,0.03));
#1469=CARTESIAN_POINT('',(0.004,-0.000500000000000011,0.03));
#1470=CARTESIAN_POINT('',(0.004,0.017,0.03));
#1471=CARTESIAN_POINT('',(-0.0185,0.017,0.03));
#1472=CARTESIAN_POINT('',(0.,-0.035,0.03));
#1473=CARTESIAN_POINT('',(0.055,-0.035,0.03));
#1474=CARTESIAN_POINT('',(-0.055,-0.035,0.03));
#1475=CARTESIAN_POINT('',(-0.055,-1.38777878078145E-17,0.03));
#1476=CARTESIAN_POINT('',(-0.055,0.035,0.03));
#1477=CARTESIAN_POINT('',(0.,0.035,0.03));
#1478=CARTESIAN_POINT('',(0.055,0.035,0.03));
#1479=CARTESIAN_POINT('',(0.055,6.93889390390723E-18,0.03));
#1480=CARTESIAN_POINT('',(0.014,0.025,0.03));
#1481=CARTESIAN_POINT('',(0.014,0.028,0.03));
#1482=CARTESIAN_POINT('',(0.014,0.022,0.03));
#1483=CARTESIAN_POINT('',(0.017,0.022,0.03));
#1484=CARTESIAN_POINT('',(0.02,0.022,0.03));
#1485=CARTESIAN_POINT('',(0.02,0.025,0.03));
#1486=CARTESIAN_POINT('',(0.02,0.028,0.03));
#1487=CARTESIAN_POINT('',(0.017,0.028,0.03));
#1488=CARTESIAN_POINT('',(0.0223686811569894,0.000802933157238532,0.03));
#1489=CARTESIAN_POINT('',(0.0223686811569894,0.00380293315723853,0.03));
#1490=CARTESIAN_POINT('',(0.0223686811569894,-0.00219706684276147,0.03));
#1491=CARTESIAN_POINT('',(0.0253686811569894,-0.00219706684276147,0.03));
#1492=CARTESIAN_POINT('',(0.0283686811569894,-0.00219706684276147,0.03));
#1493=CARTESIAN_POINT('',(0.0283686811569894,0.000802933157238532,0.03));
#1494=CARTESIAN_POINT('',(0.0283686811569894,0.00380293315723853,0.03));
#1495=CARTESIAN_POINT('',(0.0253686811569894,0.00380293315723853,0.03));
#1496=CARTESIAN_POINT('',(0.0303686811569894,-0.00771707769713794,0.03));
#1497=CARTESIAN_POINT('',(0.0303686811569894,-0.00471707769713793,0.03));
#1498=CARTESIAN_POINT('',(0.0303686811569894,-0.0107170776971379,0.03));
#1499=CARTESIAN_POINT('',(0.0333686811569894,-0.0107170776971379,0.03));
#1500=CARTESIAN_POINT('',(0.0363686811569894,-0.0107170776971379,0.03));
#1501=CARTESIAN_POINT('',(0.0363686811569894,-0.00771707769713794,0.03));
#1502=CARTESIAN_POINT('',(0.0363686811569894,-0.00471707769713794,0.03));
#1503=CARTESIAN_POINT('',(0.0333686811569894,-0.00471707769713794,0.03));
#1504=CARTESIAN_POINT('',(0.0303686811569894,0.00878107564756589,0.03));
#1505=CARTESIAN_POINT('',(0.0303686811569894,0.0117810756475659,0.03));
#1506=CARTESIAN_POINT('',(0.0303686811569894,0.00578107564756589,0.03));
#1507=CARTESIAN_POINT('',(0.0333686811569894,0.00578107564756589,0.03));
#1508=CARTESIAN_POINT('',(0.0363686811569894,0.00578107564756589,0.03));
#1509=CARTESIAN_POINT('',(0.0363686811569894,0.00878107564756589,0.03));
#1510=CARTESIAN_POINT('',(0.0363686811569894,0.0117810756475659,0.03));
#1511=CARTESIAN_POINT('',(0.0333686811569894,0.0117810756475659,0.03));
#1512=CARTESIAN_POINT('',(0.,0.,0.04));
#1513=CARTESIAN_POINT('',(0.0115859370940734,-0.0005,0.04));
#1514=CARTESIAN_POINT('',(0.0115859370940734,-0.018,0.04));
#1515=CARTESIAN_POINT('',(0.0115859370940734,0.017,0.04));
#1516=CARTESIAN_POINT('',(-0.0185,-0.018,0.04));
#1517=CARTESIAN_POINT('',(-0.0474140629059266,-0.018,0.04));
#1518=CARTESIAN_POINT('',(-0.0474140629059266,-0.0005,0.04));
#1519=CARTESIAN_POINT('',(-0.0474140629059266,0.017,0.04));
#1520=CARTESIAN_POINT('',(-0.0185,0.017,0.04));
#1521=CARTESIAN_POINT('',(-0.049,-0.031,0.04));
#1522=CARTESIAN_POINT('',(-0.049,0.029,0.04));
#1523=CARTESIAN_POINT('',(-0.049,-0.029,0.04));
#1524=CARTESIAN_POINT('',(3.94564555320215E-18,-0.029,0.04));
#1525=CARTESIAN_POINT('',(0.049,-0.029,0.04));
#1526=CARTESIAN_POINT('',(0.049,1.09679290739179E-17,0.04));
#1527=CARTESIAN_POINT('',(0.049,0.029,0.04));
#1528=CARTESIAN_POINT('',(-0.051,0.029,0.04));
#1529=CARTESIAN_POINT('',(0.,0.022,0.04));
#1530=CARTESIAN_POINT('',(0.02,0.022,0.04));
#1531=CARTESIAN_POINT('',(0.014,0.022,0.04));
#1532=CARTESIAN_POINT('',(0.014,0.,0.04));
#1533=CARTESIAN_POINT('',(0.014,0.028,0.04));
#1534=CARTESIAN_POINT('',(0.,0.028,0.04));
#1535=CARTESIAN_POINT('',(0.02,0.028,0.04));
#1536=CARTESIAN_POINT('',(0.02,0.,0.04));
#1537=CARTESIAN_POINT('',(0.,-0.0279371796309948,0.04));
#1538=CARTESIAN_POINT('',(0.02,-0.0279371796309948,0.04));
#1539=CARTESIAN_POINT('',(0.014,-0.0279371796309948,0.04));
#1540=CARTESIAN_POINT('',(0.014,0.,0.04));
#1541=CARTESIAN_POINT('',(0.014,-0.0219371796309948,0.04));
#1542=CARTESIAN_POINT('',(0.,-0.0219371796309948,0.04));
#1543=CARTESIAN_POINT('',(0.02,-0.0219371796309948,0.04));
#1544=CARTESIAN_POINT('',(0.02,0.,0.04));
#1545=CARTESIAN_POINT('',(-3.1760861920238E-19,-0.00219706684276146,0.04));
#1546=CARTESIAN_POINT('',(0.0283686811569894,-0.00219706684276147,0.04));
#1547=CARTESIAN_POINT('',(0.0223686811569894,-0.00219706684276147,0.04));
#1548=CARTESIAN_POINT('',(0.0223686811569894,0.,0.04));
#1549=CARTESIAN_POINT('',(0.0223686811569894,0.00380293315723853,0.04));
#1550=CARTESIAN_POINT('',(5.49753118786024E-19,0.00380293315723853,0.04));
#1551=CARTESIAN_POINT('',(0.0283686811569894,0.00380293315723853,0.04));
#1552=CARTESIAN_POINT('',(0.0283686811569894,0.,0.04));
#1553=CARTESIAN_POINT('',(-3.1760861920238E-19,-0.00219706684276146,0.04));
#1554=CARTESIAN_POINT('',(0.0363686811569894,-0.00219706684276147,0.04));
#1555=CARTESIAN_POINT('',(0.0303686811569894,-0.00219706684276147,0.04));
#1556=CARTESIAN_POINT('',(0.0303686811569894,0.,0.04));
#1557=CARTESIAN_POINT('',(0.0303686811569894,0.00380293315723853,0.04));
#1558=CARTESIAN_POINT('',(5.49753118786024E-19,0.00380293315723854,0.04));
#1559=CARTESIAN_POINT('',(0.0363686811569894,0.00380293315723853,0.04));
#1560=CARTESIAN_POINT('',(0.0363686811569894,0.,0.04));
#1561=CARTESIAN_POINT('',(0.,-0.0107170776971379,0.04));
#1562=CARTESIAN_POINT('',(0.0363686811569894,-0.0107170776971379,0.04));
#1563=CARTESIAN_POINT('',(0.0303686811569894,-0.0107170776971379,0.04));
#1564=CARTESIAN_POINT('',(0.0303686811569894,0.,0.04));
#1565=CARTESIAN_POINT('',(0.0303686811569894,-0.00471707769713793,0.04));
#1566=CARTESIAN_POINT('',(-1.36380423653863E-18,-0.00471707769713793,0.04));
#1567=CARTESIAN_POINT('',(0.0363686811569894,-0.00471707769713794,0.04));
#1568=CARTESIAN_POINT('',(0.0363686811569894,0.,0.04));
#1569=CARTESIAN_POINT('',(-3.1760861920238E-19,-0.00219706684276146,0.04));
#1570=CARTESIAN_POINT('',(0.0439211956867619,-0.00219706684276147,0.04));
#1571=CARTESIAN_POINT('',(0.0379211956867619,-0.00219706684276147,0.04));
#1572=CARTESIAN_POINT('',(0.0379211956867619,0.,0.04));
#1573=CARTESIAN_POINT('',(0.0379211956867619,0.00380293315723853,0.04));
#1574=CARTESIAN_POINT('',(5.49753118786024E-19,0.00380293315723854,0.04));
#1575=CARTESIAN_POINT('',(0.0439211956867619,0.00380293315723853,0.04));
#1576=CARTESIAN_POINT('',(0.0439211956867619,0.,0.04));
#1577=CARTESIAN_POINT('',(1.67142794037173E-18,0.0057810756475659,0.04));
#1578=CARTESIAN_POINT('',(0.0363686811569894,0.00578107564756589,0.04));
#1579=CARTESIAN_POINT('',(0.0303686811569894,0.00578107564756589,0.04));
#1580=CARTESIAN_POINT('',(0.0303686811569894,0.,0.04));
#1581=CARTESIAN_POINT('',(0.0303686811569894,0.0117810756475659,0.04));
#1582=CARTESIAN_POINT('',(0.,0.0117810756475659,0.04));
#1583=CARTESIAN_POINT('',(0.0363686811569894,0.0117810756475659,0.04));
#1584=CARTESIAN_POINT('',(0.0363686811569894,0.,0.04));
#1585=CARTESIAN_POINT('',(-0.041,-0.0005,0.04));
#1586=CARTESIAN_POINT('',(-0.041,0.017,0.04));
#1587=CARTESIAN_POINT('',(-0.041,0.017,0.035));
#1588=CARTESIAN_POINT('',(-0.041,-0.0005,0.035));
#1589=CARTESIAN_POINT('',(-0.041,-0.018,0.035));
#1590=CARTESIAN_POINT('',(-0.041,-0.018,0.04));
#1591=CARTESIAN_POINT('',(0.004,-0.000500000000000011,0.04));
#1592=CARTESIAN_POINT('',(0.004,-0.000500000000000011,0.035));
#1593=CARTESIAN_POINT('',(0.004,0.017,0.035));
#1594=CARTESIAN_POINT('',(0.004,-0.018,0.035));
#1595=CARTESIAN_POINT('',(0.004,0.017,0.04));
#1596=CARTESIAN_POINT('',(0.004,-0.018,0.04));
#1597=CARTESIAN_POINT('',(0.,0.,0.035));
#1598=CARTESIAN_POINT('',(-0.053,-1.18632702228091E-17,0.035));
#1599=CARTESIAN_POINT('',(-0.053,-0.033,0.035));
#1600=CARTESIAN_POINT('',(-0.053,0.033,0.035));
#1601=CARTESIAN_POINT('',(-4.48987252605762E-18,0.033,0.035));
#1602=CARTESIAN_POINT('',(0.053,0.033,0.035));
#1603=CARTESIAN_POINT('',(0.053,-0.031,0.035));
#1604=CARTESIAN_POINT('',(0.053,-0.033,0.035));
#1605=CARTESIAN_POINT('',(-0.051,-0.033,0.035));
#1606=CARTESIAN_POINT('',(0.,-0.035,0.035));
#1607=CARTESIAN_POINT('',(0.055,-0.035,0.035));
#1608=CARTESIAN_POINT('',(-0.055,-0.035,0.035));
#1609=CARTESIAN_POINT('',(0.055,6.93889390390723E-18,0.035));
#1610=CARTESIAN_POINT('',(0.055,0.035,0.035));
#1611=CARTESIAN_POINT('',(0.,0.035,0.035));
#1612=CARTESIAN_POINT('',(-0.055,0.035,0.035));
#1613=CARTESIAN_POINT('',(-0.055,-1.38777878078145E-17,0.035));
#1614=CARTESIAN_POINT('',(0.,-0.035,0.035));
#1615=CARTESIAN_POINT('',(0.055,-0.035,0.035));
#1616=CARTESIAN_POINT('',(-0.055,-0.035,0.035));
#1617=CARTESIAN_POINT('',(-0.055,-1.38777878078145E-17,0.035));
#1618=CARTESIAN_POINT('',(-0.055,0.035,0.035));
#1619=CARTESIAN_POINT('',(0.,0.035,0.035));
#1620=CARTESIAN_POINT('',(0.055,0.035,0.035));
#1621=CARTESIAN_POINT('',(0.055,6.93889390390723E-18,0.035));
#1622=CARTESIAN_POINT('',(0.051,6.93889390390723E-18,0.04));
#1623=CARTESIAN_POINT('',(0.051,-0.031,0.04));
#1624=CARTESIAN_POINT('',(0.051,-0.031,0.038));
#1625=CARTESIAN_POINT('',(0.051,-0.031,0.037));
#1626=CARTESIAN_POINT('',(0.051,0.031,0.037));
#1627=CARTESIAN_POINT('',(0.051,0.031,0.037));
#1628=CARTESIAN_POINT('',(0.051,0.031,0.04));
#1629=CARTESIAN_POINT('',(0.051,0.031,0.038));
#1630=CARTESIAN_POINT('',(0.051,6.93889390390723E-18,0.038));
#1631=CARTESIAN_POINT('',(-6.93889390390723E-18,0.031,0.04));
#1632=CARTESIAN_POINT('',(-6.93889390390723E-18,0.031,0.037));
#1633=CARTESIAN_POINT('',(-0.051,0.031,0.037));
#1634=CARTESIAN_POINT('',(-0.051,0.031,0.04));
#1635=CARTESIAN_POINT('',(-0.051,0.031,0.038));
#1636=CARTESIAN_POINT('',(0.051,0.031,0.038));
#1637=CARTESIAN_POINT('',(-0.051,-6.93889390390723E-18,0.04));
#1638=CARTESIAN_POINT('',(-0.051,-6.93889390390723E-18,0.037));
#1639=CARTESIAN_POINT('',(-0.051,-0.031,0.037));
#1640=CARTESIAN_POINT('',(-0.051,-0.031,0.04));
#1641=CARTESIAN_POINT('',(-0.051,-0.031,0.038));
#1642=CARTESIAN_POINT('',(-0.051,0.031,0.038));
#1643=CARTESIAN_POINT('',(0.,-0.031,0.04));
#1644=CARTESIAN_POINT('',(0.051,-0.031,0.037));
#1645=CARTESIAN_POINT('',(0.,-0.031,0.038));
#1646=CARTESIAN_POINT('',(4.48987252605762E-18,-0.033,0.037));
#1647=CARTESIAN_POINT('',(-0.053,-0.033,0.037));
#1648=CARTESIAN_POINT('',(0.053,-0.033,0.037));
#1649=CARTESIAN_POINT('',(0.053,1.18632702228091E-17,0.037));
#1650=CARTESIAN_POINT('',(0.053,0.033,0.037));
#1651=CARTESIAN_POINT('',(-0.053,-7.38656447835286E-18,0.037));
#1652=CARTESIAN_POINT('',(-0.053,0.033,0.037));
#1653=CARTESIAN_POINT('',(-7.21100739033496E-18,0.033,0.037));
#1654=CARTESIAN_POINT('',(-3.94564555320215E-18,0.029,0.038));
#1655=CARTESIAN_POINT('',(-0.049,0.029,0.038));
#1656=CARTESIAN_POINT('',(0.049,0.029,0.038));
#1657=CARTESIAN_POINT('',(0.049,6.4912233294616E-18,0.038));
#1658=CARTESIAN_POINT('',(0.049,-0.029,0.038));
#1659=CARTESIAN_POINT('',(-0.049,-1.09679290739179E-17,0.038));
#1660=CARTESIAN_POINT('',(-0.049,-0.029,0.038));
#1661=CARTESIAN_POINT('',(-2.72113486427734E-19,-0.029,0.038));
#1662=CARTESIAN_POINT('',(-0.0185,0.017,0.04));
#1663=CARTESIAN_POINT('',(-0.0474140629059266,0.017,0.035));
#1664=CARTESIAN_POINT('',(-0.0474140629059266,0.017,0.035));
#1665=CARTESIAN_POINT('',(-0.0179140629059267,0.017,0.035));
#1666=CARTESIAN_POINT('',(-0.0179140629059267,0.017,0.035));
#1667=CARTESIAN_POINT('',(0.0115859370940734,0.017,0.035));
#1668=CARTESIAN_POINT('',(0.0115859370940734,0.017,0.035));
#1669=CARTESIAN_POINT('',(-0.0185,-0.018,0.04));
#1670=CARTESIAN_POINT('',(0.0115859370940734,-0.018,0.035));
#1671=CARTESIAN_POINT('',(0.0115859370940734,-0.018,0.035));
#1672=CARTESIAN_POINT('',(-0.0179140629059267,-0.018,0.035));
#1673=CARTESIAN_POINT('',(-0.0179140629059267,-0.018,0.035));
#1674=CARTESIAN_POINT('',(-0.0474140629059266,-0.018,0.035));
#1675=CARTESIAN_POINT('',(-0.0474140629059266,-0.018,0.035));
#1676=CARTESIAN_POINT('',(0.,0.,0.035));
#1677=CARTESIAN_POINT('',(0.0115859370940734,-0.0005,0.035));
#1678=CARTESIAN_POINT('',(0.0115859370940734,-0.0005,0.035));
#1679=CARTESIAN_POINT('',(-0.0474140629059266,-0.0005,0.035));
#1680=CARTESIAN_POINT('',(-0.0474140629059266,-0.0005,0.035));
#1681=CARTESIAN_POINT('',(0.,0.,0.035));
#1682=CARTESIAN_POINT('',(0.014,0.025,0.055));
#1683=CARTESIAN_POINT('',(0.014,0.022,0.055));
#1684=CARTESIAN_POINT('',(0.014,0.028,0.055));
#1685=CARTESIAN_POINT('',(0.017,0.028,0.055));
#1686=CARTESIAN_POINT('',(0.02,0.028,0.055));
#1687=CARTESIAN_POINT('',(0.02,0.025,0.055));
#1688=CARTESIAN_POINT('',(0.02,0.022,0.055));
#1689=CARTESIAN_POINT('',(0.017,0.022,0.055));
#1690=CARTESIAN_POINT('',(0.014,-0.0249371796309948,0.055));
#1691=CARTESIAN_POINT('',(0.014,-0.0279371796309948,0.055));
#1692=CARTESIAN_POINT('',(0.014,-0.0219371796309948,0.055));
#1693=CARTESIAN_POINT('',(0.017,-0.0219371796309948,0.055));
#1694=CARTESIAN_POINT('',(0.02,-0.0219371796309948,0.055));
#1695=CARTESIAN_POINT('',(0.02,-0.0249371796309948,0.055));
#1696=CARTESIAN_POINT('',(0.02,-0.0279371796309948,0.055));
#1697=CARTESIAN_POINT('',(0.017,-0.0279371796309948,0.055));
#1698=CARTESIAN_POINT('',(0.0223686811569894,0.000802933157238532,0.055));
#1699=CARTESIAN_POINT('',(0.0223686811569894,-0.00219706684276147,0.055));
#1700=CARTESIAN_POINT('',(0.0223686811569894,0.00380293315723853,0.055));
#1701=CARTESIAN_POINT('',(0.0253686811569894,0.00380293315723853,0.055));
#1702=CARTESIAN_POINT('',(0.0283686811569894,0.00380293315723853,0.055));
#1703=CARTESIAN_POINT('',(0.0283686811569894,0.000802933157238532,0.055));
#1704=CARTESIAN_POINT('',(0.0283686811569894,-0.00219706684276147,0.055));
#1705=CARTESIAN_POINT('',(0.0253686811569894,-0.00219706684276147,0.055));
#1706=CARTESIAN_POINT('',(0.0303686811569894,0.000802933157238532,0.055));
#1707=CARTESIAN_POINT('',(0.0303686811569894,-0.00219706684276147,0.055));
#1708=CARTESIAN_POINT('',(0.0303686811569894,0.00380293315723853,0.055));
#1709=CARTESIAN_POINT('',(0.0333686811569894,0.00380293315723853,0.055));
#1710=CARTESIAN_POINT('',(0.0363686811569894,0.00380293315723853,0.055));
#1711=CARTESIAN_POINT('',(0.0363686811569894,0.000802933157238532,0.055));
#1712=CARTESIAN_POINT('',(0.0363686811569894,-0.00219706684276147,0.055));
#1713=CARTESIAN_POINT('',(0.0333686811569894,-0.00219706684276147,0.055));
#1714=CARTESIAN_POINT('',(0.0303686811569894,-0.00771707769713794,0.055));
#1715=CARTESIAN_POINT('',(0.0303686811569894,-0.0107170776971379,0.055));
#1716=CARTESIAN_POINT('',(0.0303686811569894,-0.00471707769713793,0.055));
#1717=CARTESIAN_POINT('',(0.0333686811569894,-0.00471707769713794,0.055));
#1718=CARTESIAN_POINT('',(0.0363686811569894,-0.00471707769713794,0.055));
#1719=CARTESIAN_POINT('',(0.0363686811569894,-0.00771707769713794,0.055));
#1720=CARTESIAN_POINT('',(0.0363686811569894,-0.0107170776971379,0.055));
#1721=CARTESIAN_POINT('',(0.0333686811569894,-0.0107170776971379,0.055));
#1722=CARTESIAN_POINT('',(0.0379211956867619,0.000802933157238532,0.055));
#1723=CARTESIAN_POINT('',(0.0379211956867619,-0.00219706684276147,0.055));
#1724=CARTESIAN_POINT('',(0.0379211956867619,0.00380293315723853,0.055));
#1725=CARTESIAN_POINT('',(0.0409211956867619,0.00380293315723853,0.055));
#1726=CARTESIAN_POINT('',(0.0439211956867619,0.00380293315723853,0.055));
#1727=CARTESIAN_POINT('',(0.0439211956867619,0.000802933157238532,0.055));
#1728=CARTESIAN_POINT('',(0.0439211956867619,-0.00219706684276147,0.055));
#1729=CARTESIAN_POINT('',(0.0409211956867619,-0.00219706684276147,0.055));
#1730=CARTESIAN_POINT('',(0.0303686811569894,0.00878107564756589,0.055));
#1731=CARTESIAN_POINT('',(0.0303686811569894,0.00578107564756589,0.055));
#1732=CARTESIAN_POINT('',(0.0303686811569894,0.0117810756475659,0.055));
#1733=CARTESIAN_POINT('',(0.0333686811569894,0.0117810756475659,0.055));
#1734=CARTESIAN_POINT('',(0.0363686811569894,0.0117810756475659,0.055));
#1735=CARTESIAN_POINT('',(0.0363686811569894,0.00878107564756589,0.055));
#1736=CARTESIAN_POINT('',(0.0363686811569894,0.00578107564756589,0.055));
#1737=CARTESIAN_POINT('',(0.0333686811569894,0.00578107564756589,0.055));
#1738=MECHANICAL_DESIGN_GEOMETRIC_PRESENTATION_REPRESENTATION('',(#1095),
#1739);
#1739=(
GEOMETRIC_REPRESENTATION_CONTEXT(3)
GLOBAL_UNCERTAINTY_ASSIGNED_CONTEXT((#1740))
GLOBAL_UNIT_ASSIGNED_CONTEXT((#1743,#1742,#1741))
REPRESENTATION_CONTEXT('Part 2','TOP_LEVEL_ASSEMBLY_PART')
);
#1740=UNCERTAINTY_MEASURE_WITH_UNIT(LENGTH_MEASURE(1.E-8),#1743,
'DISTANCE_ACCURACY_VALUE','Maximum Tolerance applied to model');
#1741=(
NAMED_UNIT(*)
SI_UNIT($,.STERADIAN.)
SOLID_ANGLE_UNIT()
);
#1742=(
NAMED_UNIT(*)
PLANE_ANGLE_UNIT()
SI_UNIT($,.RADIAN.)
);
#1743=(
LENGTH_UNIT()
NAMED_UNIT(*)
SI_UNIT($,.METRE.)
);
#1744=PRODUCT_DEFINITION_SHAPE('','',#1745);
#1745=PRODUCT_DEFINITION('','',#1747,#1746);
#1746=PRODUCT_DEFINITION_CONTEXT('',#1753,'design');
#1747=PRODUCT_DEFINITION_FORMATION_WITH_SPECIFIED_SOURCE('','',#1749,
 .NOT_KNOWN.);
#1748=PRODUCT_RELATED_PRODUCT_CATEGORY('','',(#1749));
#1749=PRODUCT('Part 2','Part 2','Part 2',(#1751));
#1750=PRODUCT_CATEGORY('','');
#1751=PRODUCT_CONTEXT('',#1753,'mechanical');
#1752=APPLICATION_PROTOCOL_DEFINITION('international standard',
'ap242_managed_model_based_3d_engineering',2020,#1753);
#1753=APPLICATION_CONTEXT('managed model based 3d engineering');
ENDSEC;
END-ISO-10303-21;
